<svg xmlns="http://www.w3.org/2000/svg" viewBox="0 0 400 400" style="enable-background:new 0 0 400 400" xml:space="preserve"><style>.st0{display:none}.st4{display:inline}.st5{fill:#fff}.st10,.st7{display:inline;fill:#fff}.st10{fill:none}.st43{fill:#c8c8c8}.st50{fill:#282828}.st54,.st55{display:inline;fill:#e9e9e9}.st55{fill:#e77100}.st60{fill:#e8f9ff}.st64{display:inline}.st64,.st65{fill:#39c94a}.st72{display:inline;fill:#e01e5a}.st73,.st74,.st75{display:inline;fill:#ecb22d}.st74,.st75{fill:#2fb67c}.st75{fill:#36c5f1}.st81{stroke:#000;stroke-miterlimit:10}</style><g id="_x31_01"><path d="M64.45 12.49V386.1h270.43V12.49H64.45zM325.24 375H74.66V96.4h250.58V375zm0-289.37H74.66v-63.5h250.58v63.5z"/><path d="M280.03 32.05c-12.05 0-21.83 9.77-21.83 21.83 0 12.05 9.77 21.83 21.83 21.83s21.83-9.77 21.83-21.83c-.01-12.05-9.78-21.83-21.83-21.83zm0 35.01c-7.28 0-13.18-5.9-13.18-13.18s5.9-13.18 13.18-13.18 13.18 5.9 13.18 13.18-5.9 13.18-13.18 13.18zM164.01 241.76l7.34-2.48c1.88 3.98 4.61 5.98 8.2 5.98 3.68 0 6.51-2 8.48-6.02 1.97-4.01 2.98-9.61 3.03-16.79-1.76 3.87-3.73 6.36-5.92 7.47s-4.45 1.66-6.81 1.66c-4.54 0-8.35-1.69-11.42-5.07-3.08-3.38-4.62-7.83-4.62-13.36 0-5.55 1.59-10.16 4.76-13.82s7.38-5.49 12.63-5.49c5.94 0 10.73 2.42 14.38 7.26 3.65 4.84 5.47 11.76 5.47 20.77 0 9.17-1.76 16.66-5.27 22.47-3.52 5.81-8.48 8.71-14.9 8.71-4.09 0-7.45-1.12-10.1-3.37-2.64-2.25-4.4-4.89-5.25-7.92zm15.89-18.55c2.57 0 4.82-.98 6.75-2.95 1.94-1.96 2.9-4.8 2.9-8.5 0-2.55-.84-4.88-2.53-6.96-1.69-2.09-4.02-3.13-6.99-3.13-2.78 0-5.04 1.04-6.79 3.13s-2.62 4.66-2.62 7.72c0 2.69.81 5.15 2.44 7.36 1.65 2.22 3.92 3.33 6.84 3.33zM210.23 194.72h30.26l-.78 8.88h-23.06l-1.35 16.66c2.92-4.4 6.74-6.61 11.44-6.61 4.68 0 8.63 1.91 11.85 5.72 3.22 3.82 4.83 8.35 4.83 13.59 0 5.47-1.69 10.18-5.06 14.14-3.37 3.96-8.01 5.93-13.9 5.93-4.68 0-8.77-1.28-12.28-3.83-3.5-2.55-5.78-6.52-6.83-11.91l8.41-1.47c1.64 5.86 5.05 8.79 10.23 8.79 3.18 0 5.64-1.14 7.36-3.41 1.72-2.27 2.58-5.02 2.58-8.25 0-3.2-.86-5.9-2.57-8.1-1.71-2.2-3.93-3.3-6.66-3.3-4.13 0-7.27 2.23-9.41 6.69l-7.84-1.81 2.78-31.71z"/></g></svg>