<svg xmlns="http://www.w3.org/2000/svg" viewBox="0 0 400 400" style="enable-background:new 0 0 400 400" xml:space="preserve"><style>.st0{display:none}.st4{display:inline}.st5{fill:#fff}.st10,.st7{display:inline;fill:#fff}.st10{fill:none}.st43{fill:#c8c8c8}.st50{fill:#282828}.st54,.st55{display:inline;fill:#e9e9e9}.st55{fill:#e77100}.st60{fill:#e8f9ff}.st64{display:inline}.st64,.st65{fill:#39c94a}.st72{display:inline;fill:#e01e5a}.st73,.st74,.st75{display:inline;fill:#ecb22d}.st74,.st75{fill:#2fb67c}.st75{fill:#36c5f1}.st81{stroke:#000;stroke-miterlimit:10}</style><g id="_x31_02"><path d="M64.45 12.49V386.1h270.43V12.49H64.45zM325.24 375H74.66V96.4h250.58V375zm0-289.37H74.66v-63.5h250.58v63.5z"/><path d="M280.03 32.05c-12.05 0-21.83 9.77-21.83 21.83 0 12.05 9.77 21.83 21.83 21.83s21.83-9.77 21.83-21.83c-.01-12.05-9.78-21.83-21.83-21.83zm0 35.01c-7.28 0-13.18-5.9-13.18-13.18s5.9-13.18 13.18-13.18 13.18 5.9 13.18 13.18-5.9 13.18-13.18 13.18zM199.46 208.07l-7.61 1.7c-1.41-5.44-4.34-8.16-8.78-8.16-4.24 0-7.21 2.13-8.91 6.39-1.7 4.26-2.54 8.76-2.54 13.49 0 .93.01 1.87.04 2.8 2.49-5.8 6.78-8.71 12.88-8.71 4.73 0 8.68 1.74 11.85 5.22 3.17 3.48 4.76 7.87 4.76 13.17 0 5.61-1.7 10.3-5.08 14.08-3.39 3.78-7.66 5.67-12.8 5.67-6.41 0-11.46-2.63-15.13-7.88s-5.51-12.45-5.51-21.6c0-8.98 1.8-16.27 5.4-21.88 3.6-5.61 8.42-8.41 14.47-8.41 9.08.01 14.74 4.72 16.96 14.12zm-16.53 37.97c2.68 0 4.94-.94 6.79-2.83 1.84-1.88 2.76-4.76 2.76-8.64 0-2.63-.87-5.1-2.62-7.39-1.74-2.29-4.16-3.44-7.26-3.44-2.83 0-5.11 1.09-6.84 3.27-1.73 2.18-2.6 4.86-2.6 8.03 0 3.2.89 5.83 2.67 7.9 1.78 2.07 4.15 3.1 7.1 3.1zM225.51 253.73c-6.12 0-10.84-2.75-14.16-8.26-3.32-5.51-4.98-12.51-4.98-21.01 0-9.18 1.74-16.55 5.21-22.13 3.48-5.58 8.14-8.37 13.99-8.37 4.22 0 7.79 1.31 10.7 3.93 2.91 2.62 5.08 6.26 6.51 10.92s2.14 9.03 2.14 13.1c0 6.83-.67 12.43-2.01 16.8-1.34 4.38-3.48 7.97-6.4 10.79-2.91 2.82-6.59 4.23-11 4.23zm-.04-8.2c2.54 0 4.58-.91 6.15-2.72 1.56-1.81 2.62-4.35 3.18-7.6s.84-7.76.84-13.51c0-4.76-.69-9.28-2.07-13.55-1.38-4.28-4.02-6.41-7.92-6.41-6.78 0-10.17 7.28-10.17 21.83 0 6.6.72 11.91 2.16 15.93 1.44 4.02 4.05 6.03 7.83 6.03z"/></g></svg>