<svg xmlns="http://www.w3.org/2000/svg" viewBox="0 0 400 400" style="enable-background:new 0 0 400 400" xml:space="preserve"><style>.st0{display:none}.st4{display:inline}.st5{fill:#fff}.st10,.st7{display:inline;fill:#fff}.st10{fill:none}.st43{fill:#c8c8c8}.st50{fill:#282828}.st54,.st55{display:inline;fill:#e9e9e9}.st55{fill:#e77100}.st60{fill:#e8f9ff}.st64{display:inline}.st64,.st65{fill:#39c94a}.st72{display:inline;fill:#e01e5a}.st73,.st74,.st75{display:inline;fill:#ecb22d}.st74,.st75{fill:#2fb67c}.st75{fill:#36c5f1}.st81{stroke:#000;stroke-miterlimit:10}</style><g id="_x31_03"><path d="M64.45 12.49V386.1h270.43V12.49H64.45zM325.24 375H74.66V96.4h250.58V375zm0-289.37H74.66v-63.5h250.58v63.5z"/><path d="M280.03 32.05c-12.05 0-21.83 9.77-21.83 21.83 0 12.05 9.77 21.83 21.83 21.83s21.83-9.77 21.83-21.83c-.01-12.05-9.78-21.83-21.83-21.83zm0 35.01c-7.28 0-13.18-5.9-13.18-13.18s5.9-13.18 13.18-13.18 13.18 5.9 13.18 13.18-5.9 13.18-13.18 13.18zM194.08 256.39h-9.38v-13.2h-22.46v-7.66l22.46-38.44h9.38v37.16h7.6v8.94h-7.6v13.2zm-8.7-48.36-14.34 26.22h13.67V218.2c0-1.7.07-3.23.22-4.6l.45-5.57zM226.36 257.28c-6.2 0-10.98-2.76-14.34-8.28-3.36-5.52-5.04-12.54-5.04-21.05 0-9.19 1.76-16.59 5.28-22.18 3.52-5.59 8.24-8.39 14.17-8.39 4.27 0 7.89 1.31 10.84 3.94 2.95 2.62 5.15 6.27 6.6 10.94 1.44 4.67 2.17 9.04 2.17 13.13 0 6.84-.68 12.45-2.04 16.83-1.36 4.38-3.52 7.99-6.48 10.81-2.97 2.84-6.69 4.25-11.16 4.25zm-.04-8.21c2.57 0 4.64-.91 6.23-2.72 1.58-1.82 2.66-4.36 3.22-7.62.57-3.26.85-7.77.85-13.54 0-4.77-.7-9.29-2.09-13.58-1.4-4.28-4.07-6.43-8.02-6.43-6.87 0-10.3 7.29-10.3 21.88 0 6.61.73 11.93 2.19 15.96 1.45 4.03 4.09 6.05 7.92 6.05z"/></g></svg>