<svg xmlns="http://www.w3.org/2000/svg" viewBox="0 0 400 400" style="enable-background:new 0 0 400 400" xml:space="preserve"><style>.st0{display:none}.st4{display:inline}.st5{fill:#fff}.st10,.st7{display:inline;fill:#fff}.st10{fill:none}.st43{fill:#c8c8c8}.st50{fill:#282828}.st54,.st55{display:inline;fill:#e9e9e9}.st55{fill:#e77100}.st60{fill:#e8f9ff}.st64{display:inline}.st64,.st65{fill:#39c94a}.st72{display:inline;fill:#e01e5a}.st73,.st74,.st75{display:inline;fill:#ecb22d}.st74,.st75{fill:#2fb67c}.st75{fill:#36c5f1}.st81{stroke:#000;stroke-miterlimit:10}</style><g id="_x31_04"><path d="M64.45 12.49V386.1h270.43V12.49H64.45zM325.24 375H74.66V96.4h250.58V375zm0-289.37H74.66v-63.5h250.58v63.5z"/><path d="M280.03 32.05c-12.05 0-21.83 9.77-21.83 21.83 0 12.05 9.77 21.83 21.83 21.83s21.83-9.77 21.83-21.83c-.01-12.05-9.78-21.83-21.83-21.83zm0 35.01c-7.28 0-13.18-5.9-13.18-13.18s5.9-13.18 13.18-13.18 13.18 5.9 13.18 13.18-5.9 13.18-13.18 13.18zM174.57 204.29c6.53-2.37 13.3-5.49 20.32-9.36l1.43 5.71c-5.4 3.41-11.61 6.74-18.63 9.99l-3.12-6.34zm29.02-49.9v17.2H184.9c-.02.31-.06.71-.1 1.2-.11 1.48-.3 3.27-.56 5.35h20.79v3.62c-.04 13.7-.54 23.08-1.49 28.12-.4 2.06-1.21 3.56-2.42 4.52-1.24.97-3.2 1.46-5.88 1.46-3.12 0-5.95-.2-8.5-.6l-1.16-6.81c4.05.73 6.58 1.1 7.6 1.1 1.77 0 2.87-.54 3.29-1.63.77-1.95 1.27-9.99 1.49-24.14h-21.68c1.06-5.31 1.74-11.23 2.03-17.76h18.23v-5.64h-20.75v-5.98h27.8zm-16.57 42.7c-3.08-3.08-6.12-5.61-9.13-7.6l5.11-4.35c3.81 2.39 6.94 4.77 9.4 7.14l-5.38 4.81zm19.65 6.04c7.06-2.5 14.01-5.83 20.85-9.99l1.56 5.88c-6.49 4.16-12.94 7.63-19.36 10.39l-3.05-6.28zm28.56-48.74v17.2h-19.29c-.2 2.59-.43 4.77-.7 6.54h22.25c-.04 15.12-.61 25.48-1.69 31.08-.38 2.04-1.05 3.54-2.03 4.52-1.15 1.2-3.13 1.79-5.94 1.79-3.39 0-6.47-.13-9.26-.4l-1.56-6.67c3.54.42 6.36.63 8.47.63 1.79 0 2.89-.5 3.29-1.49.8-1.97 1.33-9.57 1.59-22.81l.03-1h-23.11c1.11-5.14 1.79-11.06 2.06-17.76h18.83v-5.64h-21.28v-5.98h28.34zm-17.2 42.3c-2.32-2.66-5.35-5.22-9.06-7.7l4.91-3.98c4.29 2.68 7.46 5.06 9.5 7.14l-5.35 4.54zM194.44 302.33h-9.31v-13.1h-22.31v-7.6l22.31-38.15h9.31v36.88h7.55v8.87h-7.55v13.1zm-8.65-47.99-14.25 26.02h13.58v-15.93c0-1.69.07-3.21.22-4.56l.45-5.53zM226.51 303.22c-6.16 0-10.91-2.74-14.25-8.22s-5.01-12.44-5.01-20.89c0-9.12 1.75-16.46 5.25-22.01 3.5-5.55 8.19-8.32 14.08-8.32 4.25 0 7.83 1.3 10.77 3.91 2.93 2.6 5.12 6.22 6.55 10.86 1.44 4.63 2.15 8.98 2.15 13.03 0 6.79-.68 12.36-2.02 16.71-1.35 4.35-3.5 7.93-6.44 10.73-2.95 2.8-6.64 4.2-11.08 4.2zm-.04-8.16c2.55 0 4.61-.9 6.18-2.7 1.57-1.8 2.64-4.32 3.2-7.56.56-3.24.85-7.72.85-13.43 0-4.73-.69-9.22-2.08-13.48-1.39-4.25-4.04-6.38-7.97-6.38-6.82 0-10.23 7.24-10.23 21.71 0 6.56.72 11.84 2.17 15.84s4.08 6 7.88 6z"/></g></svg>