<svg xmlns="http://www.w3.org/2000/svg" viewBox="0 0 400 400" style="enable-background:new 0 0 400 400" xml:space="preserve"><style>.st0{display:none}.st4{display:inline}.st5,.st7{fill:#fff}.st7{display:inline}.st43{fill:#c8c8c8}.st50{fill:#282828}.st54,.st55{display:inline;fill:#e9e9e9}.st55{fill:#e77100}.st60{fill:#e8f9ff}.st64{display:inline}.st64,.st65{fill:#39c94a}.st72{display:inline;fill:#e01e5a}.st73,.st74,.st75{display:inline;fill:#ecb22d}.st74,.st75{fill:#2fb67c}.st75{fill:#36c5f1}.st80{fill:none}.st81{stroke:#000;stroke-miterlimit:10}</style><g id="_x31_06"><path class="st81" d="M135.68 88.93v10.72h24.11v6.54h-24.11v9.16h28.12v6.67h-28.12v14.94c0 2.66-.74 4.49-2.22 5.51-1.13.77-3.01 1.16-5.64 1.16-4.32 0-8.53-.22-12.65-.66l-1.29-7.14c5.11.66 8.98 1 11.59 1 1.24 0 2.01-.23 2.32-.7.2-.33.3-.89.3-1.66v-12.45h-28.9v-6.67h28.89v-9.16h-25.5v-6.54h25.5v-9.76l-1.83.2c-6.33.69-12.95 1.22-19.86 1.59l-2.86-6.18c17.53-.73 33.47-2.68 47.81-5.84l4.15 5.71c-6.19 1.4-12.79 2.59-19.81 3.56zM180.65 112.9c-3.36-4.29-6.9-7.98-10.59-11.06l5.05-4.98c3.74 2.7 7.38 6.24 10.92 10.62l-5.38 5.42zm-9.03 25.73c4.6-6.6 8.8-14.14 12.58-22.64l5.64 4.48c-3.5 8.5-7.58 16.39-12.25 23.67l-5.97-5.51zm11.92-43.19c-3.01-3.98-6.38-7.47-10.09-10.46l4.91-4.85c3.81 2.7 7.27 6.05 10.39 10.06l-5.21 5.25zm16.94-4.75h7.74V79.6h7.14v11.09h16.14V97h-16.14v11.09h19.92v6.24h-14.54v20.22c0 1.02.21 1.62.63 1.79.38.16 1.42.23 3.12.23 1.73 0 2.82-.21 3.29-.63.42-.4.7-1.14.83-2.22.22-1.75.37-4.22.43-7.4l6.61 2.52c-.31 6.07-.81 9.77-1.49 11.12-.71 1.42-2 2.36-3.88 2.82-1.35.35-3.31.53-5.88.53-4.96 0-7.98-.34-9.06-1.03-1.15-.71-1.73-2.27-1.73-4.68v-23.28H207c-.13 5.02-.44 8.83-.93 11.42-1.04 5.58-3.27 9.96-6.67 13.15-2.57 2.41-5.94 4.32-10.13 5.71l-4.65-5.58c6.33-2.04 10.55-5.15 12.65-9.33 1.57-3.14 2.42-8.27 2.56-15.37h-12.12v-6.24h20.52V97h-9.63a58.818 58.818 0 0 1-4.71 9.86l-5.78-4.35c3.7-5.87 6.19-12.87 7.47-21.02l6.61 1.03c-.44 2.59-1.01 5.31-1.71 8.17zM273.58 141.26v-34.07c-6.73 4.52-14.41 8.32-23.04 11.42l-4.02-6.74c9.81-3.3 18.41-7.55 25.8-12.75 7.26-5.11 13.72-10.97 19.39-17.56l6.41 4.02c-5.02 5.78-10.62 11.08-16.8 15.9v39.78h-7.74z"/><path d="M178.79 209.37v-7.25h3.89c2.33 0 4.27-.62 5.83-1.87 1.56-1.25 2.34-3.1 2.34-5.57 0-2.42-.66-4.24-1.98-5.46-1.32-1.22-3.02-1.83-5.09-1.83-4.2 0-7.05 2.47-8.57 7.4l-7.01-1.46c.79-3.89 2.61-7.07 5.47-9.53 2.86-2.47 6.3-3.7 10.33-3.7 4.01 0 7.43 1.24 10.27 3.72 2.83 2.48 4.25 5.8 4.25 9.96 0 3.09-.76 5.73-2.29 7.92-1.53 2.19-3.41 3.39-5.65 3.59 2.78.5 5.02 1.88 6.71 4.15s2.54 5 2.54 8.19c0 4.39-1.47 7.99-4.41 10.82-2.94 2.83-6.85 4.24-11.73 4.24-4.51 0-8.23-1.38-11.17-4.13s-4.79-5.91-5.56-9.48l7.26-2.13c1.45 5.68 4.59 8.52 9.41 8.52 2.49 0 4.5-.77 6.03-2.3 1.53-1.53 2.29-3.38 2.29-5.55 0-2.19-.66-4.12-1.98-5.78-1.32-1.66-3.31-2.49-5.97-2.49h-5.21zM221.41 232.69c-5.21 0-9.23-2.42-12.06-7.27-2.82-4.85-4.24-11.01-4.24-18.49 0-8.07 1.48-14.57 4.44-19.48 2.96-4.91 6.93-7.36 11.92-7.36 3.59 0 6.63 1.15 9.11 3.46 2.48 2.31 4.33 5.51 5.55 9.61 1.22 4.1 1.82 7.94 1.82 11.53 0 6.01-.57 10.93-1.71 14.79-1.14 3.85-2.96 7.02-5.45 9.5-2.49 2.47-5.62 3.71-9.38 3.71zm-.03-7.21c2.16 0 3.9-.8 5.23-2.39 1.33-1.59 2.23-3.83 2.71-6.69.48-2.87.72-6.83.72-11.89 0-4.19-.59-8.16-1.76-11.92s-3.42-5.65-6.75-5.65c-5.77 0-8.66 6.41-8.66 19.21 0 5.81.61 10.48 1.84 14.02 1.23 3.54 3.45 5.31 6.67 5.31z"/><path d="M386.58 110.86h-9.76c-.52 0-.98.32-1.17.8l-16.68 42.21c-5.97-1.86-14.74-3.88-24.65-3.89h-.03c-9.63 0-20.83 4.22-32.69 8.7-11.84 4.46-24.08 9.08-34.15 9.08h-.03c-7.76-.01-19.17-4.18-30.21-8.22-12.84-4.7-26.12-9.55-37.17-9.55H200c-8.66.01-19.7 4.13-31.4 8.49-12.21 4.56-24.84 9.27-34.59 9.27H134c-7.94 0-20.3-4.3-32.25-8.46-13.13-4.57-26.71-9.3-36.91-9.3h-.01c-10.51 0-18.35 2.33-22.94 4.18l-16.8-42.51c-.19-.48-.66-.8-1.17-.8h-9.76c-.89 0-1.5.9-1.17 1.73l70.8 179.12c5.27 13.34 18.17 22.11 32.52 22.11h168.15c14.35 0 27.24-8.77 32.52-22.11l70.8-179.12c.3-.84-.31-1.73-1.2-1.73zM309.19 279.8c-5.27 13.34-18.17 22.11-32.52 22.11H124.06c-14.35 0-27.24-8.77-32.52-22.11L45.56 163.47c3.58-1.45 10.19-3.48 19.27-3.49h.01c8.51 0 21.28 4.44 33.62 8.74 13.32 4.64 25.9 9.02 35.53 9.02h.01c11.56 0 25.05-5.03 38.09-9.9 10.83-4.04 21.05-7.86 27.91-7.86h.03c9.28 0 21.72 4.55 33.74 8.94 12.4 4.53 24.11 8.82 33.64 8.83h.05c11.89 0 25-4.94 37.68-9.72 10.98-4.14 21.35-8.05 29.16-8.05h.02c8.28.01 15.75 1.67 20.97 3.23l-46.1 116.59z"/></g></svg>