<svg xmlns="http://www.w3.org/2000/svg" viewBox="0 0 400 400" style="enable-background:new 0 0 400 400" xml:space="preserve"><style>.st0{display:none}.st4{display:inline}.st5{fill:#fff}.st10,.st7{display:inline;fill:#fff}.st10{fill:none}.st43{fill:#c8c8c8}.st50{fill:#282828}.st54,.st55{display:inline;fill:#e9e9e9}.st55{fill:#e77100}.st60{fill:#e8f9ff}.st64{display:inline}.st64,.st65{fill:#39c94a}.st72{display:inline;fill:#e01e5a}.st73,.st74,.st75{display:inline;fill:#ecb22d}.st74,.st75{fill:#2fb67c}.st75{fill:#36c5f1}.st81{font-family:&apos;FranklinGothic-Medium&apos;}.st85{font-family:&apos;BIZ-UDGothic-Bold&apos;}.st86{font-size:68px}.st88{font-size:88.086px}.st89{stroke:#000;stroke-miterlimit:10}.st90{letter-spacing:3}</style><path d="m316.59 277.72 70.8-179.12c.33-.83-.28-1.73-1.17-1.73h-9.76c-.52 0-.98.32-1.17.8l-16.68 42.21c-5.97-1.86-14.74-3.88-24.65-3.89h-.03c-9.63 0-20.83 4.22-32.69 8.7-11.84 4.46-24.08 9.08-34.15 9.08h-.03c-2.31 0-4.95-.38-7.81-1.01l80.12-83.43c.56-.59.16-1.56-.65-1.59l-10.3-.31c-.26-.01-.52.1-.7.29l-78.83 82.09c-3.93-1.3-8.01-2.79-12.04-4.26-12.84-4.7-26.12-9.55-37.17-9.55h-.04c-8.66.01-19.7 4.13-31.4 8.49-6.89 2.57-13.91 5.19-20.47 6.99l-80.3-83.61a.929.929 0 0 0-.7-.29l-10.3.31c-.81.02-1.21 1-.65 1.59l80.8 84.15c-1.02.09-2.02.15-2.98.15h-.01c-7.94 0-20.3-4.3-32.25-8.46-13.13-4.57-26.71-9.3-36.91-9.3h-.01c-10.51 0-18.35 2.33-22.94 4.18l-16.8-42.51c-.19-.48-.66-.8-1.17-.8h-9.76c-.89 0-1.5.9-1.17 1.73l70.8 179.12c4.04 10.22 12.55 17.74 22.76 20.71l-30.8 32.07c-.56.58-.17 1.55.63 1.58l10.13.47c.27.01.53-.09.72-.29l31.15-32.44h159.02l31.29 32.58c.19.19.45.3.72.29l10.13-.47c.8-.04 1.19-1 .63-1.58l-30.04-31.28c11.99-2 22.27-10.11 26.83-21.66zM171.73 153.86c10.83-4.04 21.05-7.86 27.91-7.86h.03c9.28 0 21.72 4.55 33.74 8.94 2.65.97 5.27 1.92 7.84 2.83l-43.72 45.53-41.97-43.71c5.35-1.69 10.79-3.72 16.17-5.73zM91.18 265.82 45.2 149.49c3.58-1.45 10.19-3.48 19.27-3.49h.01c8.51 0 21.28 4.44 33.62 8.74 13.32 4.64 25.9 9.02 35.53 9.02h.01c3.65 0 7.48-.5 11.44-1.34l45.85 47.75-74.01 77.07c-11.52-2.27-21.32-10.23-25.74-21.42zm38.26 22.11 68.08-70.9 68.08 70.9H129.44zm149.26-.09-74.59-77.67 47.17-49.12c5.68 1.64 10.99 2.72 15.76 2.72h.05c11.89 0 25-4.94 37.68-9.72 10.98-4.14 21.35-8.05 29.16-8.05h.02c8.28.01 15.75 1.67 20.97 3.23l-46.08 116.59c-4.99 12.59-16.77 21.1-30.14 22.02z" id="_x31_07"/></svg>