<svg xmlns="http://www.w3.org/2000/svg" viewBox="0 0 400 400" style="enable-background:new 0 0 400 400" xml:space="preserve"><style>.st0{display:none}.st4{display:inline}.st5{fill:#fff}.st10,.st7{display:inline;fill:#fff}.st10{fill:none}.st43{fill:#c8c8c8}.st50{fill:#282828}.st54,.st55{display:inline;fill:#e9e9e9}.st55{fill:#e77100}.st60{fill:#e8f9ff}.st64{display:inline}.st64,.st65{fill:#39c94a}.st72{display:inline;fill:#e01e5a}.st73,.st74,.st75{display:inline;fill:#ecb22d}.st74,.st75{fill:#2fb67c}.st75{fill:#36c5f1}.st81{stroke:#000;stroke-miterlimit:10}.st84{font-family:&apos;KozGoPr6N-Regular-90ms-RKSJ-H&apos;}.st85{font-size:12px}</style><g id="_x32_02"><path d="M382.39 336.64 246.12 87.22c-.1-.18-.15-.37-.15-.57V17.09c0-.66-.54-1.2-1.2-1.2h-7.81c-.66 0-1.2.54-1.2 1.2v69.55c0 .2.05.4.15.57L369.9 332.46c3.2 5.86-1.04 13.01-7.72 13.01H38.54c-6.68 0-10.92-7.15-7.72-13.01l134-245.24c.1-.18.15-.37.15-.57V17.09c0-.66-.54-1.2-1.2-1.2h-7.81c-.66 0-1.2.54-1.2 1.2v69.55c0 .2-.05.4-.15.57L18.34 336.64c-4.78 8.74 1.55 19.41 11.52 19.41h341.02c9.96 0 16.29-10.67 11.51-19.41z"/><path d="M122.32 221.29h42.87v4.86h-18.36v24.76h21.42v4.86H119.2v-4.86h21.08v-24.76h-17.96v-4.86zM198.23 229.15c-5.92-2.19-12.08-3.94-18.47-5.26l1.97-5c7.4 1.4 13.62 3.13 18.64 5.21l-2.14 5.05zm-17.77 23.14c9.28-.65 16.38-2.02 21.31-4.12 5.81-2.48 10.27-6.29 13.38-11.42 2.02-3.32 3.66-7.66 4.92-13.02l5.4 3.28c-1.52 5.74-3.35 10.29-5.51 13.67-3.9 6.15-9.86 10.61-17.88 13.37-5.06 1.74-11.83 2.98-20.3 3.72l-1.32-5.48zM243.91 238.11c-2.23-5.43-5.25-11.22-9.05-17.37l5.82-2.39c3.54 5.08 6.71 10.87 9.5 17.35l-6.27 2.41zm.51 15.53c7.76-2.12 13.74-4.98 17.94-8.56 3.88-3.27 6.77-7.42 8.66-12.46 1.48-3.91 2.6-8.91 3.35-15l6.44 1.21c-1.54 11.22-4.53 19.62-8.97 25.18-3.22 4.03-7.51 7.41-12.85 10.14-2.91 1.49-6.42 2.88-10.54 4.19l-4.03-4.7zM148.09 268.73h6.45v9.84h11.5v4.99h-11.5v1.53c0 8.28-1.4 14.5-4.19 18.66-2.69 4-7.44 7.06-14.25 9.18l-4.01-4.34c6.65-1.95 11.1-4.95 13.36-9.01 1.76-3.13 2.64-7.94 2.64-14.42v-1.61h-17.4v13.96h-6.45v-13.96h-10.69v-4.99h10.69v-9.48h6.45v9.48h17.4v-9.83zM174.66 282.66h47.73c-.84 7.08-2.58 12.62-5.22 16.61-1.99 3-4.47 5.4-7.45 7.19-5.05 3.05-12.38 5.15-22.02 6.28l-2.9-4.94c8.5-.7 15.01-2.35 19.52-4.97 5.85-3.36 9.2-8.42 10.06-15.18h-39.73v-4.99zm4.1-11.93h37.81v4.99h-37.81v-4.99zM250.08 292.58c-4.7-1.75-10.45-3.55-17.26-5.38l2.47-4.87c5.85 1.32 11.52 3.06 17.03 5.24l-2.24 5.01zM236.52 306c7.82-.55 13.94-1.56 18.38-3.02 6.55-2.13 11.71-5.93 15.45-11.4 2.5-3.65 4.48-8.27 5.93-13.86l5.79 2.85c-1.85 7-4.44 12.58-7.77 16.74-3.9 4.86-9.34 8.44-16.31 10.77-4.91 1.61-11.46 2.74-19.64 3.39l-1.83-5.47zm19.44-25.89c-5.64-2.14-11.39-3.94-17.26-5.38l1.86-4.82c6.61 1.4 12.41 3.1 17.4 5.12l-2 5.08z"/><path d="m361.51 71.33-12.21-.36c-.31-.01-.62.11-.83.34L194.11 232.06 39.9 71.48c-.22-.23-.52-.35-.83-.34l-12.21.36c-.96.03-1.44 1.18-.77 1.88l160.2 166.82L49.28 382.87c-.66.69-.2 1.83.75 1.88l12.02.56c.32.01.63-.11.85-.34l131.21-136.63 131.37 136.8c.22.23.53.36.85.34l12.02-.56c.95-.04 1.41-1.19.75-1.88L201.92 240.2 362.28 73.21c.67-.7.2-1.86-.77-1.88z"/></g></svg>