<svg xmlns="http://www.w3.org/2000/svg" viewBox="0 0 400 400" style="enable-background:new 0 0 400 400" xml:space="preserve"><style>.st0{display:none}.st4{display:inline}.st5{fill:#fff}.st10,.st7{display:inline;fill:#fff}.st10{fill:none}.st43{fill:#c8c8c8}.st50{fill:#282828}.st54,.st55{display:inline;fill:#e9e9e9}.st55{fill:#e77100}.st60{fill:#e8f9ff}.st64{display:inline}.st64,.st65{fill:#39c94a}.st72{display:inline;fill:#e01e5a}.st73,.st74,.st75{display:inline;fill:#ecb22d}.st74,.st75{fill:#2fb67c}.st75{fill:#36c5f1}.st81{stroke:#000;stroke-miterlimit:10}.st84{font-family:&apos;KozGoPr6N-Regular-90ms-RKSJ-H&apos;}.st85{font-size:12px}</style><g id="_x33_01"><path d="M335.23 164.65c0-24.1-15.94-45.3-39.1-51.99l-171.44-49.5a.864.864 0 0 0-1.1.83v13.32c0 .39.25.72.62.83l164.48 47.49c17.45 5.04 29.58 20.86 29.92 39.02h-34.39C7.8 180.08 11.57 317.67 12.4 329.39c.03.45.41.8.86.8h371.95c.58 0 1-.56.83-1.12l-50.81-164.42zm-69.53 14.98h54.39c.37 0 .7.24.82.59l45.66 138.97a.861.861 0 0 1-.82 1.13H28.42c-.47 0-.85-.37-.86-.84-.26-10.64 2.95-120.08 238.14-139.85z"/><path d="M208.42 230.32h28.88v5.76h-64.88v-5.76h28.36v-5.56h7.64v5.56zm9.91 54.1h-22.6v2.81h-7.15v-19.07h31.78v15.99c1.58.18 3.24.27 4.99.27 1.16 0 1.87-.19 2.13-.58.21-.3.31-.79.31-1.47v-17.7h-45.87v26.86h-7.71V259.1h61.28v25.59c0 2.2-.62 3.8-1.85 4.8-1.14.94-2.98 1.41-5.51 1.41-1.91 0-4.69-.15-8.34-.45l-1.46-6.03zm8.82-44.7v15.68h-44.58v-15.68h44.58zm-36.94 5.35v4.97h29.23v-4.97h-29.23zm22.99 28.58h-17.47v5.28h17.47v-5.28z"/></g></svg>