<svg xmlns="http://www.w3.org/2000/svg" viewBox="0 0 400 400" style="enable-background:new 0 0 400 400" xml:space="preserve"><style>.st0{display:none}.st4{display:inline}.st5{fill:#fff}.st10,.st7{display:inline;fill:#fff}.st10{fill:none}.st43{fill:#c8c8c8}.st50{fill:#282828}.st54,.st55{display:inline;fill:#e9e9e9}.st55{fill:#e77100}.st60{fill:#e8f9ff}.st64{display:inline}.st64,.st65{fill:#39c94a}.st72{display:inline;fill:#e01e5a}.st73,.st74,.st75{display:inline;fill:#ecb22d}.st74,.st75{fill:#2fb67c}.st75{fill:#36c5f1}.st81{stroke:#000;stroke-miterlimit:10}.st84{font-family:&apos;KozGoPr6N-Regular-90ms-RKSJ-H&apos;}.st85{font-size:12px}</style><g id="_x33_02"><path d="M335.23 164.65c0-24.1-15.94-45.3-39.1-51.99l-171.44-49.5a.864.864 0 0 0-1.1.83v13.32c0 .39.25.72.62.83l164.48 47.49c17.45 5.04 29.58 20.86 29.92 39.02h-34.39C7.8 180.08 11.57 317.67 12.4 329.39c.03.45.41.8.86.8h371.95c.58 0 1-.56.83-1.12l-50.81-164.42zm-69.53 14.98h54.39c.37 0 .7.24.82.59l45.66 138.97a.861.861 0 0 1-.82 1.13H28.42c-.47 0-.85-.37-.86-.84-.26-10.64 2.95-120.08 238.14-139.85z"/><path d="M236.42 238.89h-24.94v-10.2h-9.26v10.2h-24.38v33.64h24.38v19.09h9.26v-19.09h24.94v-33.64zm-49.13 24.19v-14.36h14.93v14.36h-14.93zm39.68 0h-15.5v-14.36h15.5v14.36z"/></g></svg>