<svg xmlns="http://www.w3.org/2000/svg" viewBox="0 0 400 400" style="enable-background:new 0 0 400 400" xml:space="preserve"><style>.st0{display:none}.st4{display:inline}.st5{fill:#fff}.st10,.st7{display:inline;fill:#fff}.st10{fill:none}.st43{fill:#c8c8c8}.st50{fill:#282828}.st54,.st55{display:inline;fill:#e9e9e9}.st55{fill:#e77100}.st60{fill:#e8f9ff}.st64{display:inline}.st64,.st65{fill:#39c94a}.st72{display:inline;fill:#e01e5a}.st73,.st74,.st75{display:inline;fill:#ecb22d}.st74,.st75{fill:#2fb67c}.st75{fill:#36c5f1}.st81{stroke:#000;stroke-miterlimit:10}.st84{font-family:&apos;KozGoPr6N-Regular-90ms-RKSJ-H&apos;}.st85{font-size:12px}</style><g id="_x33_03"><path d="M335.23 164.65c0-24.1-15.94-45.3-39.1-51.99l-171.44-49.5a.864.864 0 0 0-1.1.83v13.32c0 .39.25.72.62.83l164.48 47.49c17.45 5.04 29.58 20.86 29.92 39.02h-34.39C7.8 180.08 11.57 317.67 12.4 329.39c.03.45.41.8.86.8h371.95c.58 0 1-.56.83-1.12l-50.81-164.42zm-69.53 14.98h54.39c.37 0 .7.24.82.59l45.66 138.97a.861.861 0 0 1-.82 1.13H28.42c-.47 0-.85-.37-.86-.84-.26-10.64 2.95-120.08 238.14-139.85z"/><path d="M188.11 245.59v45.39h-7.39v-31.59c-1.5 2.34-3.27 4.83-5.31 7.47l-3.54-6.94c3.88-4.94 7.14-10.74 9.77-17.39 1.32-3.31 2.76-7.53 4.32-12.68l7.39 1.77c-1.57 4.88-3.31 9.54-5.24 13.97zm7.9-8.71c.84-.06 1.7-.12 2.59-.19 8.6-.56 17.08-1.71 25.43-3.44 2.04-.43 4.21-.96 6.5-1.58l4.73 5.21c-4.45 1.16-9.1 2.13-13.96 2.92.09 4.01.34 7.91.75 11.69l16-.84.27 6.05-15.59.78c1.18 8.66 2.91 15.21 5.18 19.66.61 1.2 1.33 2.31 2.15 3.35.54.68.93 1.02 1.16 1.02.25 0 .58-.69.99-2.08.52-1.82.96-4.53 1.33-8.12l5.86 4.19c-.7 5.02-1.52 8.57-2.45 10.63-1.27 2.77-2.79 4.16-4.56 4.16-1.52 0-3.33-.93-5.41-2.79-2.47-2.21-4.7-5.49-6.67-9.83a43.775 43.775 0 0 1-3-9.24c-.57-2.79-1.08-6.01-1.53-9.67l-.1-.84-12.6.68v14.85c4.47-1.1 8.73-2.25 12.77-3.47l.54 5.7c-6.86 2.54-14.6 4.81-23.22 6.79l-2.59-6.36c1.32-.23 3.13-.58 5.45-1.05v-38.18zm-1.4 46.41h25.84v6.29h-25.84v-6.29zm19.68-42.48c-3.5.5-7.24.9-11.24 1.21v10.45l11.95-.62c-.29-3.24-.53-6.92-.71-11.04z"/></g></svg>