<svg xmlns="http://www.w3.org/2000/svg" viewBox="0 0 400 400" style="enable-background:new 0 0 400 400" xml:space="preserve"><style>.st0{display:none}.st4{display:inline}.st5{fill:#fff}.st10,.st7{display:inline;fill:#fff}.st10{fill:none}.st43{fill:#c8c8c8}.st50{fill:#282828}.st54,.st55{display:inline;fill:#e9e9e9}.st55{fill:#e77100}.st60{fill:#e8f9ff}.st64{display:inline}.st64,.st65{fill:#39c94a}.st72{display:inline;fill:#e01e5a}.st73,.st74,.st75{display:inline;fill:#ecb22d}.st74,.st75{fill:#2fb67c}.st75{fill:#36c5f1}.st81{stroke:#000;stroke-miterlimit:10}.st84{font-family:&apos;KozGoPr6N-Regular-90ms-RKSJ-H&apos;}.st85{font-size:12px}</style><g id="_x33_04"><path d="M336.05 140.99c0-24.1-15.94-45.3-39.1-51.99L125.51 39.5a.864.864 0 0 0-1.1.83v13.32c0 .39.25.72.62.83l164.48 47.49c17.45 5.04 29.58 20.86 29.92 39.02h-34.39C8.62 156.42 12.39 294.01 13.22 305.74c.03.45.41.8.86.8h371.95c.58 0 1-.56.83-1.12l-50.81-164.43zm-69.53 14.98h54.39c.37 0 .7.24.82.59l45.66 138.97a.861.861 0 0 1-.82 1.13H29.24c-.47 0-.85-.37-.86-.84-.26-10.64 2.95-120.08 238.14-139.85z"/><path d="m361.51 51.48-12.21-.36c-.31-.01-.62.11-.83.34L194.11 212.21 39.9 51.63c-.22-.23-.52-.35-.83-.34l-12.21.36c-.96.03-1.44 1.18-.77 1.88l160.2 166.82L49.28 363.03c-.66.69-.2 1.83.75 1.88l12.02.56c.32.01.63-.11.85-.34L194.11 228.5l131.37 136.8c.22.23.53.36.85.34l12.02-.56c.95-.04 1.41-1.19.75-1.88L201.92 220.36l160.36-167c.67-.69.2-1.85-.77-1.88z"/></g></svg>