<svg xmlns="http://www.w3.org/2000/svg" viewBox="0 0 400 400" style="enable-background:new 0 0 400 400" xml:space="preserve"><style>.st0{display:none}.st4{display:inline}.st5{fill:#fff}.st10,.st7{display:inline;fill:#fff}.st10{fill:none}.st43{fill:#c8c8c8}.st50{fill:#282828}.st54,.st55{display:inline;fill:#e9e9e9}.st55{fill:#e77100}.st60{fill:#e8f9ff}.st64{display:inline}.st64,.st65{fill:#39c94a}.st72{display:inline;fill:#e01e5a}.st73,.st74,.st75{display:inline;fill:#ecb22d}.st74,.st75{fill:#2fb67c}.st75{fill:#36c5f1}.st81{stroke:#000;stroke-miterlimit:10}.st84{font-family:&apos;KozGoPr6N-Regular-90ms-RKSJ-H&apos;}.st85{font-size:12px}</style><g id="_x34_02"><path d="M199.99 25c96.65 0 175 78.35 175 175s-78.35 175-175 175-175-78.35-175-175 78.35-175 175-175m0-10c-24.97 0-49.2 4.89-72.01 14.54-22.03 9.32-41.81 22.66-58.8 39.64-16.99 16.99-30.32 36.77-39.64 58.8-9.66 22.82-14.55 47.05-14.55 72.02s4.89 49.2 14.54 72.01c9.32 22.03 22.66 41.81 39.64 58.8 16.99 16.99 36.77 30.32 58.8 39.64 22.81 9.65 47.04 14.54 72.01 14.54 24.97 0 49.2-4.89 72.01-14.54 22.03-9.32 41.81-22.66 58.8-39.64 16.99-16.99 30.32-36.77 39.64-58.8 9.65-22.81 14.54-47.04 14.54-72.01 0-24.97-4.89-49.2-14.54-72.01-9.32-22.03-22.66-41.81-39.64-58.8C313.82 52.2 294.03 38.86 272 29.54 249.19 19.89 224.96 15 199.99 15z"/><path d="M24.99 189.38c4.23-1.35 14.76-4.61 23.48-4.61h.01c9.47 0 23.68 4.44 37.42 8.74 14.82 4.64 28.82 9.02 39.54 9.02h.01c12.86 0 27.87-5.03 42.38-9.9 12.05-4.04 23.43-7.86 31.06-7.86h.03c10.33 0 24.16 4.55 37.54 8.94 13.8 4.53 26.83 8.82 37.43 8.83h.05c13.24 0 27.82-4.94 41.92-9.72 12.22-4.14 23.76-8.05 32.45-8.05h.02c8.94.01 20.88 1.68 26.66 3.2l.01-9.52c-6.62-1.8-16.05-3.67-26.66-3.68h-.03c-10.71 0-23.18 4.22-36.37 8.7-13.17 4.46-26.79 9.08-38 9.08h-.04c-8.63-.01-21.33-4.18-33.62-8.22-14.29-4.7-29.06-9.55-41.37-9.55h-.04c-9.63.01-21.92 4.13-34.94 8.49-13.59 4.56-27.64 9.27-38.49 9.27h-.01c-8.84 0-22.59-4.3-35.88-8.46-14.61-4.57-29.72-9.3-41.08-9.3h-.01c-10.26 0-18.23 1.79-23.48 3.48v11.12zM121.65 96.75h7.48v18.05c12.78 3.75 23.37 7.57 31.76 11.45l-3.6 6.53c-8.05-3.87-17.44-7.54-28.16-11.03v30.26h-7.48V96.75zm28.16 16.38c-1.31-3.22-3.48-6.98-6.52-11.27l4.98-1.73c2.65 3.46 4.87 7.15 6.65 11.06l-5.11 1.94zm9.18-2.01c-1.61-3.93-3.75-7.7-6.42-11.3l4.78-1.49c2.42 2.78 4.59 6.3 6.52 10.57l-4.88 2.22zM175.72 114.31h53.47c-.94 8.83-2.89 15.74-5.84 20.72-2.23 3.75-5.01 6.74-8.35 8.96-5.65 3.81-13.87 6.42-24.66 7.84l-3.24-6.17c9.53-.87 16.81-2.94 21.87-6.2 6.55-4.19 10.31-10.5 11.27-18.93h-44.51v-6.22zm4.59-14.89h42.35v6.23h-42.35v-6.23zM266.88 151.44v-31.17c-6.51 4.13-13.94 7.62-22.29 10.45l-3.89-6.17c9.48-3.02 17.8-6.91 24.95-11.67 7.02-4.68 13.27-10.04 18.75-16.07l6.2 3.68c-4.86 5.29-10.28 10.14-16.25 14.55v36.4h-7.47zM91.79 236.03h7.15v14.73l29.99-4.04 3.9 3.91c-2.31 6.46-5.11 11.69-8.4 15.67a31.901 31.901 0 0 1-7.99 6.94l-5.43-4.54c3.62-2.02 6.7-4.68 9.24-7.98 1.77-2.29 3.06-4.66 3.87-7.1l-25.19 3.66v21.58c0 2.48.85 3.96 2.56 4.44 1.48.44 4.74.66 9.8.66 5.74 0 11.7-.31 17.88-.94v7.13c-5.64.42-11.45.63-17.45.63-8.3 0-13.46-.42-15.48-1.25-2.98-1.21-4.46-4.1-4.46-8.67v-22.55l-13.11 1.91-.69-6.66 13.8-1.84v-15.69zM169.6 235.53l1.84 11.36 21.6-1.5.47 6.41-20.97 1.47 2.06 12.58 22.82-1.66.5 6.38-22.32 1.75 3.28 19.71-7.37.91-3.25-20.05-25.84 2-.5-6.6 25.25-1.88-2.06-12.61-20.26 1.41-.44-6.47 19.63-1.35-1.81-11.01 7.37-.85zM214.04 242.5h36.74c-.77 12.3-2.11 25.16-4.03 38.57h14.39v6.54h-54.46v-6.54h32.74c1.91-13.3 3.13-24.02 3.65-32.16h-29.03v-6.41zM294.44 260.68c5.26-4.32 10.34-8.83 15.23-13.54l6.27 3.66c-5.97 5.25-12.56 10.45-19.76 15.58 3.22-.15 5.64-.24 7.24-.28 3.89-.15 6.77-.27 8.65-.38l3.12-.19c-1.37-1.65-3-3.42-4.87-5.32l5.18-3.25c4.74 4.36 8.87 9.11 12.39 14.26l-5.68 3.85c-1.12-1.71-2.21-3.28-3.25-4.72-4.83.5-9.69.92-14.58 1.25l-3.28.22v23.05h-7.08v-22.68c-9.74.52-17.73.89-23.97 1.09l-1.78-6.29c7.91-.08 13.99-.18 18.26-.28 1.02-.73 2.02-1.47 3-2.22l-.44-.34c-5.16-4.04-10.19-7.58-15.08-10.6l4.59-4.6c1.73 1.17 3.38 2.3 4.96 3.41 4.45-3.88 7.58-6.98 9.4-9.29-5.68.54-12.4.94-20.16 1.19l-2.31-5.63c17.75-.48 33.18-1.97 46.29-4.47l4.78 5.22c-10.22 1.69-18.74 2.83-25.56 3.41l4.68 1.78c-4.12 4.25-8.26 7.98-12.42 11.17 2.31 1.73 4.05 3.1 5.21 4.1.44.39.77.67.97.84zm-25.78 27.9c4.91-3.94 8.71-8.64 11.39-14.11l6.59 3.16c-3.75 6.8-7.81 12.04-12.2 15.73l-5.78-4.78zm52.44 3.07c-3.62-5.03-8.12-9.92-13.48-14.67l5.49-3.97c5.01 3.96 9.57 8.51 13.67 13.64l-5.68 5z"/></g></svg>