<svg xmlns="http://www.w3.org/2000/svg" viewBox="0 0 400 400" style="enable-background:new 0 0 400 400" xml:space="preserve"><style>.st0{display:none}.st4{display:inline}.st5{fill:#fff}.st10,.st7{display:inline;fill:#fff}.st10{fill:none}.st43{fill:#c8c8c8}.st50{fill:#282828}.st54,.st55{display:inline;fill:#e9e9e9}.st55{fill:#e77100}.st60{fill:#e8f9ff}.st64{display:inline}.st64,.st65{fill:#39c94a}.st72{display:inline;fill:#e01e5a}.st73,.st74,.st75{display:inline;fill:#ecb22d}.st74,.st75{fill:#2fb67c}.st75{fill:#36c5f1}.st81{stroke:#000;stroke-miterlimit:10}.st84{font-family:&apos;KozGoPr6N-Regular-90ms-RKSJ-H&apos;}.st85{font-size:12px}</style><g id="_x34_03"><path d="M200 34.46c91.43 0 165.54 74.11 165.54 165.54 0 91.43-74.12 165.54-165.54 165.54S34.46 291.43 34.46 200c0-91.43 74.11-165.54 165.54-165.54m0-9.46c-23.62 0-46.54 4.63-68.12 13.76-20.84 8.81-39.55 21.43-55.62 37.5s-28.69 34.78-37.5 55.62C29.63 153.46 25 176.38 25 200c0 23.62 4.63 46.54 13.76 68.12 8.81 20.84 21.43 39.55 37.5 55.62s34.78 28.69 55.62 37.5C153.46 370.37 176.38 375 200 375c23.62 0 46.54-4.63 68.12-13.76 20.84-8.81 39.55-21.43 55.62-37.5s28.69-34.78 37.5-55.62C370.37 246.54 375 223.62 375 200c0-23.62-4.63-46.54-13.76-68.12-8.81-20.84-21.43-39.55-37.5-55.62s-34.78-28.69-55.62-37.5C246.54 29.63 223.62 25 200 25z"/><path d="M39.23 196.89c3.94-1.26 13.77-4.3 21.9-4.3h.01c8.84 0 22.08 4.15 34.9 8.16 13.82 4.33 26.88 8.41 36.88 8.41h.01c12 0 26-4.69 39.53-9.23 11.24-3.77 21.85-7.33 28.97-7.33h.03c9.64 0 22.54 4.24 35.02 8.34 12.87 4.23 25.03 8.22 34.91 8.23h.05c12.34 0 25.95-4.61 39.1-9.07 11.4-3.86 22.16-7.51 30.26-7.51h.02c8.33.01 19.48 1.56 24.86 2.98l.01-8.88c-6.17-1.68-14.97-3.42-24.87-3.43h-.03c-9.99 0-21.62 3.94-33.92 8.11-12.29 4.16-24.99 8.47-35.44 8.47h-.04c-8.05-.01-19.9-3.9-31.36-7.67-13.33-4.38-27.11-8.91-38.58-8.91h-.04c-8.99.01-20.45 3.85-32.58 7.92-12.67 4.25-25.78 8.65-35.9 8.65h-.01c-8.24 0-21.07-4.01-33.47-7.89-13.63-4.26-27.72-8.67-38.31-8.67h-.01c-9.57 0-17 1.67-21.9 3.25v10.37zM129.38 109.1h6.98v16.83c11.92 3.5 21.79 7.06 29.62 10.68l-3.35 6.09c-7.51-3.61-16.26-7.04-26.27-10.29v28.23h-6.98V109.1zm26.27 15.27c-1.22-3-3.24-6.51-6.08-10.51l4.64-1.62c2.48 3.23 4.54 6.67 6.2 10.32l-4.76 1.81zm8.57-1.87c-1.5-3.66-3.49-7.18-5.99-10.54l4.46-1.39c2.26 2.59 4.28 5.88 6.08 9.86l-4.55 2.07zM179.82 125.48h49.87c-.88 8.24-2.7 14.68-5.45 19.33-2.08 3.5-4.67 6.28-7.79 8.36-5.27 3.55-12.94 5.99-23 7.31l-3.02-5.75c8.88-.81 15.68-2.74 20.4-5.78 6.11-3.91 9.61-9.8 10.51-17.65h-41.51v-5.82zm4.28-13.89h39.5v5.81h-39.5v-5.81zM264.85 160.11v-29.08c-6.07 3.85-13 7.1-20.78 9.75l-3.62-5.75c8.85-2.81 16.6-6.44 23.27-10.88 6.55-4.36 12.38-9.36 17.49-14.99l5.78 3.43c-4.53 4.93-9.58 9.46-15.15 13.57v33.95h-6.99z"/><path d="m386.2 25.4-13.58-.4c-.35-.01-.69.13-.93.38L199.91 204.27 28.31 25.57c-.24-.25-.58-.39-.93-.38l-13.58.4c-1.07.03-1.6 1.32-.85 2.09l178.27 185.64L38.75 372.09c-.74.77-.23 2.04.83 2.09l13.37.63c.36.02.7-.12.95-.38l146.01-152.05L346.1 374.62c.25.26.59.4.95.38l13.37-.63c1.06-.05 1.57-1.32.83-2.09L208.61 213.32 387.06 27.49c.74-.77.21-2.06-.86-2.09z"/></g></svg>