<svg xmlns="http://www.w3.org/2000/svg" viewBox="0 0 400 400" style="enable-background:new 0 0 400 400" xml:space="preserve"><style>.st0{display:none}.st4{display:inline}.st5{fill:#fff}.st10,.st7{display:inline;fill:#fff}.st10{fill:none}.st43{fill:#c8c8c8}.st50{fill:#282828}.st54,.st55{display:inline;fill:#e9e9e9}.st55{fill:#e77100}.st60{fill:#e8f9ff}.st64{display:inline}.st64,.st65{fill:#39c94a}.st72{display:inline;fill:#e01e5a}.st73,.st74,.st75{display:inline;fill:#ecb22d}.st74,.st75{fill:#2fb67c}.st75{fill:#36c5f1}.st81{stroke:#000;stroke-miterlimit:10}.st84{font-family:&apos;KozGoPr6N-Regular-90ms-RKSJ-H&apos;}.st85{font-size:12px}</style><g id="_x35_01"><path d="m331.21 152.91-36.17 35.16c.47-5.69-.1-11.36-1.79-16.84-9.01-29.27-45.76-38.11-99.25-25.8-23.13 5.33-57.2 24.12-57.2 24.12-2.64-13.71-13.96-25.33-30.13-25.33h-66.4c-12.28 0-22.23 9.95-22.23 22.23v61.19c0 28.28 30.99 41.31 51.19 23.52l38.94-32.45c.8 1.01 1.05 1.46 1.42 3.04 6.87 29.83 55.4 42.13 109.29 31.72 17.99-3.48 33.19-9.96 45.17-18.22 1.94 14.04 13.49 26.51 30.24 26.51h66.4c12.28 0 22.23-9.95 22.23-22.23v-64.77c0-26.94-32.39-40.63-51.71-21.85zM66.37 242.13c-24.43 16.48-42.67 2.01-40.4-21.81v-54.48c0-7.64 6.19-13.84 13.84-13.84h59.76c22.47 0 43.51 21.88 9.4 53.93l-42.6 36.2zm149.33 3.17c-48.37 9.5-91.59.09-97.25-24.52-5.67-24.61 28.69-53.52 76.73-64.59 48.05-11.07 80.78-4.33 88.36 19.78 8.42 26.75-18.12 59.57-67.84 69.33zm159.3-5.13c0 7.63-6.18 13.81-13.81 13.81h-59.78c-22.47 0-41.55-19.63-17.39-42.96l48.59-47.03c21.01-19.73 43.44-8.62 42.39 17.96v58.22z"/><path d="M51.14 183.8h32.71v33.22H49.86v-4.31h28.96v-10.77H52.23v-4.31h26.59v-9.51H51.14v-4.32zM187.43 180.64h36.73c-.14 7.32-.66 12.96-1.56 16.92-1.4 6.07-3.99 10.56-7.76 13.49-2.46 1.91-5.48 3.55-9.06 4.94-1.77.68-3.55 1.22-5.33 1.62l-2.95-4.63c8.04-1.67 13.49-4.45 16.34-8.35 2.94-4.04 4.51-10.5 4.69-19.35h-25.86v12.38h-5.24v-17.02zM347.65 185.03l3.54 3.17c-1.71 10.34-4.85 18.25-9.42 23.71-4.16 4.97-10.43 8.82-18.79 11.54l-2.84-4.98c7.67-2.09 13.51-5.48 17.52-10.16 3.89-4.52 6.49-10.59 7.81-18.24h-15.3c-3.18 5.2-6.91 9.36-11.19 12.47l-3.72-4.07c3.48-2.42 6.32-5.06 8.51-7.9 2.48-3.24 4.42-7.14 5.81-11.71l4.93 1.45c-.54 1.72-1.13 3.3-1.77 4.74h14.91z"/></g></svg>