<svg xmlns="http://www.w3.org/2000/svg" viewBox="0 0 400 400" style="enable-background:new 0 0 400 400" xml:space="preserve"><style>.st0{display:none}.st4{display:inline}.st5{fill:#fff}.st10,.st7{display:inline;fill:#fff}.st10{fill:none}.st43{fill:#c8c8c8}.st50{fill:#282828}.st54,.st55{display:inline;fill:#e9e9e9}.st55{fill:#e77100}.st60{fill:#e8f9ff}.st64{display:inline}.st64,.st65{fill:#39c94a}.st72{display:inline;fill:#e01e5a}.st73,.st74,.st75{display:inline;fill:#ecb22d}.st74,.st75{fill:#2fb67c}.st75{fill:#36c5f1}.st81{stroke:#000;stroke-miterlimit:10}.st84{font-family:&apos;KozGoPr6N-Regular-90ms-RKSJ-H&apos;}.st85{font-size:12px}</style><g id="_x35_02"><path d="m330.73 159.72-36.17 35.16c.47-5.69-.1-11.36-1.79-16.84-9.01-29.27-45.76-38.11-99.25-25.8-23.13 5.33-57.2 24.12-57.2 24.12-2.64-13.71-13.96-25.33-30.13-25.33h-66.4c-12.28 0-22.23 9.95-22.23 22.23v61.19c0 28.28 30.99 41.31 51.19 23.52l38.94-32.45c.8 1.01 1.05 1.46 1.42 3.04 6.87 29.83 55.4 42.13 109.29 31.72 17.99-3.48 33.19-9.96 45.17-18.22 1.94 14.04 13.49 26.51 30.24 26.51h66.4c12.28 0 22.23-9.95 22.23-22.23v-64.77c0-26.94-32.4-40.63-51.71-21.85zM65.88 248.94c-24.43 16.48-42.67 2.01-40.4-21.81v-54.48c0-7.64 6.19-13.84 13.84-13.84h59.76c22.47 0 43.51 21.88 9.4 53.93l-42.6 36.2zm149.34 3.18c-48.37 9.5-91.59.09-97.25-24.52-5.67-24.61 28.69-53.52 76.73-64.59 48.05-11.07 80.78-4.33 88.36 19.78 8.42 26.75-18.12 59.57-67.84 69.33zm159.3-5.14c0 7.63-6.18 13.81-13.81 13.81h-59.78c-22.47 0-41.55-19.63-17.39-42.96l48.59-47.03c21.01-19.73 43.44-8.62 42.39 17.96v58.22z"/><path d="m337.96 70.64-10.06-.3a.898.898 0 0 0-.69.28L199.93 203.16 72.8 70.77a.898.898 0 0 0-.69-.28l-10.06.3c-.79.02-1.18.98-.63 1.55L193.5 209.88 80.53 327.5a.917.917 0 0 0 .62 1.55l9.91.46c.26.01.52-.09.7-.28l108.18-112.65 108.31 112.79c.18.19.44.29.7.28l9.91-.46a.917.917 0 0 0 .62-1.55l-113.1-117.77L338.59 72.19c.55-.57.16-1.52-.63-1.55z"/></g></svg>