<svg xmlns="http://www.w3.org/2000/svg" viewBox="0 0 400 400" style="enable-background:new 0 0 400 400" xml:space="preserve"><style>.st0{display:none}.st4{display:inline}.st5{fill:#fff}.st10,.st7{display:inline;fill:#fff}.st10{fill:none}.st43{fill:#c8c8c8}.st50{fill:#282828}.st54,.st55{display:inline;fill:#e9e9e9}.st55{fill:#e77100}.st60{fill:#e8f9ff}.st64{display:inline}.st64,.st65{fill:#39c94a}.st72{display:inline;fill:#e01e5a}.st73,.st74,.st75{display:inline;fill:#ecb22d}.st74,.st75{fill:#2fb67c}.st75{fill:#36c5f1}.st81{stroke:#000;stroke-miterlimit:10}.st84{font-family:&apos;KozGoPr6N-Regular-90ms-RKSJ-H&apos;}.st85{font-size:12px}</style><g id="_x36_04"><path d="M202.18 165.26v26.84h28.68v7.04h-28.68v23.07h-7.44v-23.07h-28.25v-7.04h28.25v-26.84h-25.21v-6.83h58.32v6.83h-25.67zm-22.06 24.24c-2.18-6.73-4.6-12.72-7.24-17.99l7.18-3.02c2.47 4.44 5 10.46 7.58 18.06l-7.52 2.95zm29.31-2.37c2.84-5.54 5.25-11.89 7.21-19.05l7.51 2.51c-2.07 6.61-4.68 13.03-7.81 19.26l-6.91-2.72zM289.81 222.36l1.34-12.16-174.04 146.69-7.94 17.05zM183.51 375.05h-14.18l97.6-87.03.08 12.19zM278.62 345.94l-4.4-9.73-41.67 38.84H247z"/><path d="m323.28 341.98 53.67-42.82a.74.74 0 0 0 .21-.89L341.46 219c-.04-.1-.07-.2-.07-.31v-69.86s-.28-23.84-25.23-65.76c-20.62-34.66-56.3-50.31-62.76-52.93a.74.74 0 0 0-1.02.69V43.4c0 .48-.44.83-.9.73-2.44-.56-9.37-2.12-14.83-3.15-7.65-1.44-15.49-1.76-17.93-1.83a.737.737 0 0 1-.72-.78c.24-4.09.36-23.19-18.01-23.19-22.34 0-22.1 19.69-21.8 23.78.03.41-.27.76-.68.8-2.14.18-8.44.73-13.29 1.5-4.57.73-12.27 2.33-14.88 2.88-.46.1-.9-.26-.9-.73v-12.5c0-.51-.51-.87-.99-.7-6.31 2.25-41.34 16.11-63.45 53.99-23.48 40.23-24.63 63.7-24.66 64.33v.03l.84 71.34c0 .11-.02.21-.06.31l-35.66 80.44c-.14.3-.05.66.21.87l50.28 41.57c.31.26.78.22 1.04-.09l46.06-54c.45-.53 1.31-.21 1.31.49l-.23 32.37c0 .12-.03.24-.09.35L89.99 383.6c-.27.5.09 1.1.65 1.1h219.51c.55 0 .91-.58.67-1.07l-33.41-67.37a.764.764 0 0 1-.08-.33v-29.96c0-.71.9-1.02 1.33-.45l43.56 56.36c.26.3.73.36 1.06.1zM198.32 24.96c9.91.01 9.72 10.78 9.49 13.61-.03.39-.35.68-.74.68l-18.23.03a.74.74 0 0 1-.74-.67c-.26-2.82-.56-13.65 10.22-13.65zm-47.69 26.79c4.16-2.31 22.41-6.76 47.32-6.76 27.79 0 49.91 4.73 53.73 7.61 1.46 1.1-4.68 31.61-53.36 31.61-41.88 0-48.44-32.04-47.69-32.46zm116.6 269.02L291.32 374a.746.746 0 0 1-.68 1.05l-180.8-.05c-.54 0-.9-.56-.67-1.06l24.38-52.32c.05-.1.07-.21.07-.31v-54.7c0-.15-.04-.28-.12-.4-1.84-2.78-24.28-37.25-24.83-66.2-.48-25.36 16.14-46.05 18.89-49.3.22-.26.24-.64.03-.92l-5.45-7.44a.739.739 0 0 0-1.04-.16c-3.56 2.67-21.65 18.15-21.88 57.82-.18 31.38 23.07 65.75 25.01 68.56.09.12.13.27.13.42l-.01 4.3-48.19 54.3c-.26.29-.7.32-1.01.08l-37.18-29.45a.729.729 0 0 1-.22-.88l32.31-72.66c.04-.1.06-.2.06-.3v-76.51c0-.04 0-.07.01-.1.2-1.37 4.56-30.55 21.82-57.4 19.59-30.47 42.39-42.62 47.18-44.93.45-.21.96.06 1.04.55 1 6.84 9.07 47.5 59.83 47.5 54.84 0 60.37-40.07 60.93-47.34.04-.53.61-.85 1.08-.6 5.64 3 33.26 18.69 47.64 44.82 16.39 29.79 21.37 55.63 21.63 57.01.01.04.01.08.01.12l.73 77.63c0 .11.03.21.07.31l33.34 70.45c.15.31.06.69-.21.9l-39.95 31.39c-.32.25-.79.2-1.04-.12l-45.57-57.16-.04-3.28s22.81-19.28 22.53-67.61c-.21-36.1-16.58-53.45-19.64-56.38a.736.736 0 0 0-.99-.02l-6.92 5.87c-.31.27-.36.73-.09 1.04 2.95 3.45 18.28 22.72 18.28 49.49 0 34.73-22.72 63.91-24.86 66.58-.11.13-.16.29-.16.46l.38 53.43c.01.09.03.19.08.29z"/></g></svg>