<svg version="1.1" id="レイヤー_1" xmlns="http://www.w3.org/2000/svg" x="0" y="0" viewBox="0 0 601.1 1080" style="enable-background:new 0 0 601.1 1080" xml:space="preserve"><style>.st1{opacity:.55;enable-background:new}.st1,.st2{fill:#fff}.st31{display:none}.st32,.st33{display:inline;fill:#fff}.st33{fill:#000333}.st35{font-family:&apos;ArialMT&apos;}.st36{font-size:12px}.st38,.st39{display:inline;fill:#5c0002}.st39{fill:#ffa6d2}</style><path style="opacity:.6;fill:#a7ffff;enable-background:new" d="M601.1 1080H.2V0h600.9z"/><path class="st1" d="M-632.7 125s147.65-40.83 376.76-44.54c186.95-3.02 469.28 199.31 857.2 244.91 289.34 34.02 686.05-68.03 686.05-68.03v17.32s-162.34 102.37-582.43 102.05C373.71 376.46 46.75 92.46-269.68 99.49c-153.07 3.4-363.02 51.02-363.02 51.02V125zM-632.7 704.79s147.65-40.83 376.76-44.54c186.95-3.02 469.28 50.08 857.2 95.69 289.34 34.02 686.05-185.34 686.05-185.34v134.63S1124.97 921.02 704.88 920.7c-331.16-.25-658.12-248.46-974.55-241.42-153.07 3.4-363.02 51.02-363.02 51.02v-25.51h-.01z"/><path class="st1" d="M1287.3 668.99s-147.62-44.51-376.76-44.54c-333.24-.03-567.81 199.88-955.72 245.49-289.34 34.02-587.52-68.61-587.52-68.61v17.32S-470.36 921.02-50.27 920.7c331.16-.25 663.2-387.74 979.64-380.71 153.07 3.4 357.93 154.5 357.93 154.5v-25.5zM-632.7 375.22s26.26 26.08 211.65 31.93S19.45 304.86 245.66 306.8c226.2 1.95 512.5 170.79 665.57 178.58s376.07-158.34 376.07-158.34v117.39s-199.76 55.78-390.24 53.18S565.4 381.63 247.92 374.83c-411.26-8.81-427.46 57.82-680.88 56.12-131.63-.88-199.74-34.02-199.74-34.02v-21.71z"/><path class="st2" d="M-445.34 179.89c-53.05 0-96.05 43-96.05 96.05s43 96.05 96.05 96.05 96.05-43 96.05-96.05-43-96.05-96.05-96.05zm0 185.83c-49.59 0-78.82-40.2-78.82-89.79 0-45.67 38.63-75.95 78.82-75.95 49.59 0 89.79 26.36 89.79 75.95 0 49.6-40.2 89.79-89.79 89.79z"/><path class="st2" d="M-375.43 241.92c-2.92 5.89-11.01-13.31-28.45-21.94s-37.61-3.43-34.7-9.33c2.92-5.89 33.06 2.99 36.86 4.96 6.29 3.25 29.21 20.41 26.29 26.31zM-279.12 243.02c-53.05 0-96.05 43-96.05 96.05s43 96.05 96.05 96.05 96.05-43 96.05-96.05-43.01-96.05-96.05-96.05zm0 185.84c-49.59 0-78.82-40.2-78.82-89.79 0-45.67 38.63-75.95 78.82-75.95 49.59 0 89.79 26.36 89.79 75.95-.01 49.59-40.21 89.79-89.79 89.79z"/><path class="st2" d="M-209.22 305.05c-2.92 5.89-11.01-13.31-28.45-21.94s-37.61-3.43-34.7-9.33c2.92-5.89 33.06 2.99 36.86 4.96 6.29 3.26 29.21 20.42 26.29 26.31zM-272.65-16.36c-53.05 0-96.05 43-96.05 96.05s43 96.05 96.05 96.05 96.05-43 96.05-96.05-43-96.05-96.05-96.05zm0 185.84c-49.59 0-78.82-40.2-78.82-89.79 0-45.67 38.63-75.95 78.82-75.95 49.59 0 89.79 26.36 89.79 75.95s-40.2 89.79-89.79 89.79z"/><path class="st2" d="M-202.74 45.67c-2.92 5.89-11.01-13.31-28.45-21.94s-37.61-3.43-34.7-9.33c2.92-5.89 33.06 2.99 36.86 4.96 6.28 3.26 29.21 20.42 26.29 26.31zM-156.38 293.63c-36.2 38.78-34.1 99.56 4.67 135.75s99.56 34.1 135.75-4.67 34.1-99.56-4.67-135.75-99.55-34.1-135.75 4.67zm135.85 126.81c-33.84 36.25-83.17 30.19-119.42-3.64-33.39-31.16-29.16-80.06-1.73-109.44 33.84-36.25 80.54-47.65 116.79-13.81 36.24 33.82 38.2 90.64 4.36 126.89z"/><path class="st2" d="M-63.33 284.86c2.32 6.16-17.24-1.03-35.45 5.83s-28.17 25.16-30.49 19 24.74-22.12 28.77-23.56c6.66-2.38 34.85-7.43 37.17-1.27zM128.61 377.27c-46.68-25.21-104.95-7.8-130.15 38.87s-7.8 104.95 38.87 130.15 104.95 7.8 130.15-38.87 7.81-104.94-38.87-130.15zm-88.3 163.52c-43.63-23.56-50.25-72.82-26.69-116.46 21.7-40.19 70.08-48.47 105.44-29.37 43.63 23.56 66.48 65.86 42.91 109.49-23.56 43.63-78.03 59.9-121.66 36.34z"/><path class="st2" d="M160.64 465.07c-5.37 3.8-3.37-16.94-14.61-32.82s-31.47-20.89-26.1-24.69 27.66 18.34 30.07 21.88c4 5.84 16.01 31.83 10.64 35.63zM-410.43 460.54c25.84 5.96 51.63-10.16 57.59-36s-10.16-51.63-36-57.59-51.63 10.16-57.59 36 10.16 51.63 36 57.59zm20.89-90.54c24.16 5.57 33.88 28.44 28.31 52.6-5.13 22.25-27.36 32.66-46.94 28.14-24.16-5.57-40.78-22.93-35.21-47.09 5.58-24.15 29.68-39.22 53.84-33.65z"/><path class="st2" d="M-437.51 422.47c2.08-2.54 3.87 7.72 11.39 13.89 7.52 6.17 17.94 5.9 15.86 8.44s-15.77-5.17-17.4-6.56c-2.7-2.29-11.94-13.23-9.85-15.77zM58.32 160.56c-26.26 3.74-44.52 28.05-40.78 54.31s28.05 44.52 54.31 40.78 44.52-28.05 40.78-54.31-28.05-44.51-54.31-40.78zm13.09 92c-24.55 3.49-41.85-14.35-45.34-38.89-3.22-22.61 13.77-40.32 33.67-43.15 24.55-3.49 46.3 6.73 49.79 31.27s-13.57 47.27-38.12 50.77z"/><path class="st2" d="M98.62 174.21c-1.03 3.12-6.39-5.81-15.63-8.86s-18.86.95-17.83-2.17 16.57-.85 18.59-.14c3.34 1.17 15.9 8.05 14.87 11.17zM95.94 281.59c-16.21-21-46.36-24.88-67.36-8.68-21 16.21-24.88 46.36-8.68 67.36s46.36 24.88 67.36 8.68c21-16.21 24.88-46.37 8.68-67.36zm-73.56 56.77c-15.15-19.63-8.17-43.48 11.46-58.63 18.08-13.95 41.86-7.91 54.14 8 15.15 19.63 16.99 43.59-2.63 58.74-19.63 15.15-47.82 11.51-62.97-8.11z"/><path class="st2" d="M92.74 328.21c-3.23.65 1.9-8.42-.01-17.96s-10.13-15.94-6.91-16.58 8.91 14 9.3 16.1c.63 3.47.85 17.79-2.38 18.44zM76.85 174.53c1.09 3.1-8.61-.71-17.79 2.51S44.69 189.3 43.6 186.2s12.62-10.78 14.65-11.45c3.36-1.12 17.51-3.32 18.6-.22zM-9.6 149.3c-23.87-11.57-52.59-1.59-64.16 22.27s-1.59 52.59 22.27 64.16 52.59 1.59 64.16-22.27 1.59-52.59-22.27-64.16zm-40.52 83.62c-22.31-10.81-26.7-35.27-15.89-57.59 9.96-20.55 33.94-25.75 52.03-16.99 22.31 10.81 34.65 31.44 23.84 53.75-10.82 22.32-37.67 31.64-59.98 20.83z"/><path class="st2" d="M-2.04 171.23c-.83 3.18-6.74-5.4-16.16-7.85-9.41-2.45-18.76 2.14-17.93-1.04s16.49-1.89 18.55-1.32c3.41.96 16.37 7.03 15.54 10.21zM-151.48 525.55c10.24-24.47-1.29-52.6-25.76-62.84s-52.6 1.29-62.84 25.76c-10.24 24.47 1.29 52.6 25.76 62.84 24.46 10.23 52.6-1.3 62.84-25.76zm-85.71-35.88c9.57-22.87 33.76-28.59 56.63-19.02 21.06 8.82 27.57 32.48 19.81 51.02-9.57 22.87-29.49 36.32-52.36 26.75-22.88-9.58-33.66-35.88-24.08-58.75z"/><path class="st2" d="M-193.59 545.81c-2.16-2.48 8.26-2.51 15.61-8.89s8.84-16.69 11-14.2c2.16 2.48-7.76 14.67-9.4 16.04-2.71 2.28-15.05 9.54-17.21 7.05zM-331.2 255.46c25.84 5.96 51.63-10.16 57.59-36s-10.16-51.63-36-57.59c-25.84-5.96-51.63 10.16-57.59 36s10.15 51.62 36 57.59zm20.88-90.54c24.16 5.57 33.88 28.44 28.31 52.6-5.13 22.25-27.36 32.66-46.94 28.14-24.16-5.57-40.78-22.93-35.21-47.09 5.58-24.16 29.68-39.23 53.84-33.65z"/><path class="st2" d="M-358.29 217.38c2.08-2.54 3.87 7.72 11.39 13.89 7.52 6.17 17.94 5.9 15.86 8.44-2.08 2.54-15.77-5.17-17.4-6.56-2.7-2.29-11.94-13.23-9.85-15.77zM-224.93 200.11c10.4 12.4 28.88 14.02 41.27 3.62 12.4-10.4 14.02-28.88 3.62-41.27-10.4-12.4-28.88-14.02-41.27-3.62-12.4 10.39-14.02 28.87-3.62 41.27zm43.43-36.43c9.72 11.59 6.06 26.3-5.53 36.02-10.67 8.95-25.32 5.86-33.2-3.53-9.72-11.59-11.44-26.15.15-35.87 11.58-9.72 28.86-8.21 38.58 3.38z"/><path class="st2" d="M-224.14 171.61c1.95-.47-.95 5.18.45 10.95s6.57 9.46 4.62 9.94c-1.95.47-5.78-8.31-6.07-9.59-.47-2.1-.95-10.82 1-11.3zM-275.63 216.44c-.8 16.16 11.65 29.91 27.81 30.71s29.91-11.65 30.71-27.81-11.65-29.91-27.81-30.71-29.91 11.65-30.71 27.81zm56.62 2.8c-.75 15.11-13.43 23.41-28.54 22.66-13.91-.69-22.56-12.91-21.95-25.16.75-15.11 9.38-26.96 24.49-26.21 15.1.75 26.74 13.6 26 28.71z"/><path class="st2" d="M-255.68 196.07c1.75.98-4.22 3.15-7.11 8.34-2.89 5.18-1.61 11.41-3.36 10.43-1.75-.98 1.41-10.03 2.07-11.15 1.08-1.87 6.65-8.59 8.4-7.62zM-32.89 261.68c-.8 16.16 11.65 29.91 27.81 30.71s29.91-11.65 30.71-27.81-11.65-29.91-27.81-30.71c-16.16-.81-29.91 11.65-30.71 27.81zm56.62 2.8c-.75 15.11-13.43 23.41-28.54 22.66-13.91-.69-22.56-12.91-21.95-25.16.75-15.11 9.38-26.96 24.49-26.21 15.11.75 26.75 13.6 26 28.71z"/><path class="st2" d="M-12.93 241.31c1.75.98-4.22 3.15-7.11 8.34s-1.61 11.41-3.36 10.43 1.41-10.03 2.07-11.15c1.07-1.87 6.64-8.59 8.4-7.62zM-207.84 451.57c12.54 10.22 31 8.33 41.22-4.21s8.33-31-4.21-41.22c-12.54-10.22-31-8.33-41.22 4.21s-8.34 31 4.21 41.22zm35.8-43.95c11.73 9.55 10.9 24.69 1.34 36.42-8.8 10.8-23.77 10.52-33.27 2.78-11.73-9.55-16.16-23.53-6.6-35.26 9.55-11.73 26.8-13.49 38.53-3.94z"/><path class="st2" d="M-212.42 423.44c1.83-.83.04 5.27 2.5 10.67s8.23 8.06 6.41 8.89-7.24-7.08-7.76-8.27c-.86-1.99-2.98-10.46-1.15-11.29zM-106.47 463.89c-16.1-1.56-30.43 10.23-31.99 26.33-1.56 16.1 10.23 30.43 26.33 31.99s30.43-10.23 31.99-26.33-10.23-30.43-26.33-31.99zm-5.47 56.42c-15.05-1.46-22.75-14.52-21.29-29.58 1.34-13.87 13.96-21.92 26.17-20.74 15.05 1.46 26.48 10.65 25.02 25.7-1.46 15.06-14.85 26.08-29.9 24.62z"/><path class="st2" d="M-87.08 484.78c-1.06 1.7-2.95-4.36-7.99-7.5-5.04-3.13-11.32-2.15-10.26-3.85s9.95 1.88 11.04 2.59c1.82 1.17 8.27 7.05 7.21 8.76zM-313.42 435.12c-37.03 0-67.05 30.02-67.05 67.05s30.02 67.05 67.05 67.05 67.05-30.02 67.05-67.05-30.02-67.05-67.05-67.05zm0 129.73c-34.62 0-55.03-28.06-55.03-62.68 0-31.88 26.97-53.02 55.03-53.02 34.62 0 62.68 18.4 62.68 53.02s-28.06 62.68-62.68 62.68z"/><path class="st2" d="M-264.62 478.42c-2.04 4.12-7.69-9.29-19.86-15.32s-26.26-2.4-24.22-6.51c2.04-4.12 23.08 2.09 25.73 3.46 4.39 2.28 20.39 14.26 18.35 18.37zM-126.5 188.79c2.66 3.74-11.82 2.37-22.9 10.23s-14.55 21.99-17.21 18.24 12.78-19.33 15.24-21.02c4.08-2.78 22.21-11.19 24.87-7.45z"/><path class="st2" d="m-152.17 305.83 17.04-6.82c-6.6-1.54-13.22-4.06-19.68-7.53-28.07-15.11-33.9-48.87-20.6-73.58 16.41-30.48 45.91-46.47 76.39-30.06s41.89 54.42 25.48 84.9c-.39.72-.79 1.41-1.2 2.09l6.32-2.53c15.64-32.16 3.25-71.21-28.53-88.32-32.61-17.55-73.27-5.35-90.82 27.26s-5.35 73.27 27.26 90.82c2.74 1.47 5.52 2.71 8.34 3.77zM985.38 727.93c-48.62-9.45-95.69 22.31-105.14 70.93s22.31 95.69 70.93 105.14 95.69-22.31 105.14-70.93c9.45-48.62-22.31-95.7-70.93-105.14zm-33.09 170.33c-45.45-8.83-65.09-50.88-56.26-96.33 8.13-41.86 48.93-62.73 85.77-55.58 45.45 8.83 77.6 40.15 68.77 85.6-8.83 45.45-52.83 75.14-98.28 66.31z"/><path class="st2" d="M1038.4 797.23c-3.72 4.88-7.72-14.16-22.17-25.18-14.44-11.02-33.86-9.84-30.14-14.73s29.77 8.63 32.9 11.11c5.18 4.11 23.14 23.92 19.41 28.8zM939.81 660.34c-.72 49.52 38.84 90.26 88.36 90.98 49.53.72 90.26-38.84 90.98-88.36.72-49.53-38.84-90.26-88.36-90.98-49.52-.73-90.26 38.84-90.98 88.36zm173.5 2.54c-.68 46.3-38.6 73.04-84.9 72.36-42.64-.62-70.38-37.1-69.83-74.63.68-46.3 25.84-83.47 72.13-82.79 46.29.68 83.27 38.76 82.6 85.06z"/><path class="st2" d="M998.67 595.92c5.46 2.81-12.57 10.1-20.87 26.26-8.3 16.16-3.72 35.07-9.18 32.26s3.24-30.82 5.13-34.34c3.13-5.82 19.46-26.98 24.92-24.18zM697.74 650.75c-.72 49.53 38.84 90.26 88.36 90.98s90.26-38.84 90.98-88.36c.72-49.52-38.84-90.26-88.36-90.98-49.52-.72-90.25 38.84-90.98 88.36zm173.5 2.54c-.68 46.3-38.6 73.04-84.9 72.36-42.64-.62-70.38-37.1-69.83-74.63.68-46.3 25.84-83.47 72.13-82.79 46.29.69 83.28 38.76 82.6 85.06z"/><path class="st2" d="M756.61 586.34c5.46 2.81-12.57 10.1-20.87 26.26-8.3 16.16-3.72 35.07-9.18 32.26s3.24-30.82 5.13-34.34c3.12-5.82 19.45-26.99 24.92-24.18zM725.42 428.99c-30.5 39.02-23.6 95.38 15.42 125.89 39.02 30.5 95.38 23.6 125.89-15.42 30.5-39.02 23.6-95.38-15.42-125.89-39.02-30.5-95.39-23.6-125.89 15.42zm136.7 106.87c-28.52 36.48-74.9 34.87-111.37 6.35-33.6-26.26-33.65-72.09-10.54-101.66 28.52-36.48 71.02-50.89 107.5-22.37 36.47 28.51 42.93 81.2 14.41 117.68z"/><path class="st2" d="M811.25 413.24c2.66 5.54-16.12.45-32.5 8.31s-24.15 25.7-26.81 20.16 21.21-22.6 24.84-24.26c6-2.75 31.81-9.75 34.47-4.21zM645.9 583.88c-27.5-7.64-56.29 8.29-64.29 35.58-8.01 27.29 7.8 55.6 35.3 63.24s56.29-8.29 64.29-35.58-7.8-55.61-35.3-63.24zm-28.05 95.59c-25.71-7.14-34.8-32.03-27.31-57.54 6.89-23.49 31.49-33.51 52.33-27.72 25.71 7.14 42.57 26.49 35.08 52s-34.39 40.4-60.1 33.26z"/><path class="st2" d="M672.78 625.85c-2.4 2.61-3.7-8.43-11.44-15.38s-18.98-7.18-16.58-9.79c2.4-2.61 16.69 6.3 18.36 7.86 2.77 2.57 12.06 14.7 9.66 17.31zM974.14 435.36c-25.63 42.38-12.06 97.52 30.32 123.15 42.38 25.63 97.52 12.06 123.15-30.32s12.06-97.52-30.32-123.15c-42.37-25.64-97.51-12.06-123.15 30.32zm148.48 89.8c-23.96 39.62-70.21 43.55-109.82 19.59-36.49-22.07-42.01-67.56-22.59-99.67 23.96-39.62 64.45-58.99 104.06-35.03 39.62 23.95 52.31 75.49 28.35 115.11z"/><path class="st2" d="M1057.48 409.48c3.3 5.18-15.95 2.37-31.28 12.13-15.32 9.76-20.92 28.39-24.22 23.21s18.36-24.96 21.77-27.05c5.65-3.44 30.43-13.47 33.73-8.29zM633.95 770.73c-24.17 43.23-8.72 97.87 34.52 122.04 43.23 24.17 97.87 8.72 122.04-34.52 24.17-43.23 8.72-97.87-34.52-122.04-43.23-24.17-97.87-8.71-122.04 34.52zM785.4 855.4c-22.59 40.41-68.68 45.92-109.09 23.33-37.22-20.81-44.3-66.09-25.98-98.84 22.59-40.41 62.39-61.16 102.81-38.57s54.85 73.67 32.26 114.08z"/><path class="st2" d="M716.35 742.02c3.47 5.06-15.86 2.91-30.84 13.19s-19.93 29.09-23.41 24.03c-3.47-5.06 17.5-25.58 20.84-27.78 5.51-3.64 29.93-14.5 33.41-9.44zM521.7 834.85c46.83 16.14 97.87-8.73 114.02-55.55 16.14-46.83-8.73-97.87-55.55-114.02-46.83-16.14-97.87 8.73-114.02 55.55s8.73 97.88 55.55 114.02zm56.56-164.04c43.77 15.09 57.34 59.47 42.25 103.24-13.9 40.31-57.21 55.28-92.69 43.05-43.77-15.09-71.23-50.59-56.14-94.37 15.09-43.76 62.81-67.01 106.58-51.92z"/><path class="st2" d="M478.87 758.83c4.37-4.32 5.67 15.1 18.44 28.03 12.76 12.93 32.16 14.48 27.79 18.79-4.37 4.32-28.27-12.7-31.03-15.59-4.55-4.8-19.57-26.92-15.2-31.23zM1141.1 785.89c5.92-24.05-8.78-48.34-32.82-54.26s-48.34 8.78-54.26 32.82c-5.92 24.05 8.78 48.34 32.82 54.26 24.05 5.92 48.34-8.77 54.26-32.82zm-84.24-20.73c5.53-22.48 27.02-31.25 49.5-25.71 20.7 5.1 30.12 25.99 25.63 44.21-5.53 22.48-21.97 37.76-44.45 32.23-22.48-5.55-36.22-28.26-30.68-50.73z"/><path class="st2" d="M1105.18 810.66c-2.35-1.98 7.26-3.51 13.12-10.45s5.75-16.67 8.1-14.69-5.04 14.65-6.36 16.15c-2.18 2.49-12.51 10.97-14.86 8.99zM831.22 733.21c-24.42 4.14-40.85 27.3-36.71 51.71 4.14 24.42 27.3 40.85 51.71 36.71s40.85-27.3 36.71-51.71c-4.14-24.42-27.3-40.85-51.71-36.71zm14.51 85.54c-22.82 3.87-39.42-12.35-43.29-35.17-3.57-21.02 11.85-37.97 30.35-41.11 22.82-3.87 43.38 5.12 47.26 27.94s-11.49 44.47-34.32 48.34z"/><path class="st2" d="M828.11 750.29c2.5 1.78-6.94 4.1-12.2 11.51-5.26 7.41-4.34 17.09-6.85 15.31-2.5-1.78 3.8-15.02 4.99-16.63 1.96-2.65 11.56-11.96 14.06-10.19zM718.01 601.89c22.81-9.65 33.47-35.97 23.82-58.77s-35.97-33.47-58.77-23.82c-22.81 9.65-33.47 35.97-23.82 58.77s35.97 33.47 58.77 23.82zm-33.81-79.9c21.32-9.02 41.2 2.94 50.23 24.26 8.31 19.64-2.79 39.68-20.07 47-21.32 9.02-43.4 5.01-52.42-16.31-9.03-21.33.94-45.93 22.26-54.95z"/><path class="st2" d="M717.1 584.55c-2.85-1.15 5.81-5.59 9.23-14.01s.29-17.63 3.14-16.48c2.85 1.15-.24 15.49-1.03 17.33-1.3 3.05-8.49 14.31-11.34 13.16zM1205.32 545.03c-22.7-9.89-49.13.49-59.02 23.19s.49 49.13 23.19 59.02 49.13-.49 59.02-23.19c9.89-22.7-.49-49.13-23.19-59.02zm-34.67 79.53c-21.22-9.25-26.24-31.91-16.99-53.13 8.52-19.55 30.7-25.3 47.9-17.8 21.22 9.25 33.51 28.03 24.26 49.25-9.24 21.22-33.94 30.93-55.17 21.68z"/><path class="st2" d="M1223.67 584.61c-2.35 1.98-2.23-7.75-8.08-14.7s-15.46-8.48-13.11-10.46c2.35-1.98 13.59 7.45 14.85 9 2.07 2.56 8.68 14.18 6.34 16.16zM950.71 709.13c5.92-24.05-8.78-48.34-32.82-54.26s-48.34 8.78-54.26 32.82c-5.92 24.05 8.78 48.34 32.82 54.26 24.05 5.93 48.34-8.77 54.26-32.82zm-84.25-20.73c5.53-22.48 27.02-31.25 49.5-25.71 20.7 5.1 30.12 25.99 25.63 44.21-5.53 22.48-21.97 37.76-44.45 32.23-22.47-5.55-36.21-28.25-30.68-50.73z"/><path class="st2" d="M914.79 733.9c-2.35-1.98 7.26-3.51 13.12-10.45s5.75-16.67 8.1-14.69-5.04 14.65-6.36 16.15c-2.18 2.49-12.51 10.97-14.86 8.99zM900.49 609.16c11.72-9.54 13.48-26.77 3.94-38.48s-26.77-13.48-38.48-3.94-13.48 26.77-3.94 38.48 26.76 13.48 38.48 3.94zm-33.42-41.04c10.95-8.92 24.64-5.3 33.55 5.66 8.21 10.09 5.12 23.72-3.75 30.95-10.95 8.92-24.57 10.32-33.49-.63-8.91-10.96-7.26-27.07 3.69-35.98z"/><path class="st2" d="M873.89 608.03c-.42-1.83 4.82.96 10.23-.27 5.4-1.23 8.92-6.01 9.34-4.18.42 1.83-7.84 5.28-9.03 5.53-1.97.42-10.12.75-10.54-1.08zM915.04 656.71c15.08.97 28.08-10.47 29.05-25.55s-10.47-28.08-25.55-29.05-28.08 10.47-29.05 25.55c-.97 15.08 10.47 28.09 25.55 29.05zm3.38-52.81c14.09.9 21.67 12.86 20.77 26.96-.83 12.98-12.36 20.88-23.79 20.15-14.09-.9-25.04-9.13-24.13-23.22.9-14.11 13.06-24.8 27.15-23.89z"/><path class="st2" d="M896.3 637.81c.94-1.62 2.89 3.98 7.69 6.75s10.63 1.66 9.69 3.28c-.94 1.62-9.34-1.45-10.39-2.08-1.73-1.03-7.93-6.33-6.99-7.95zM648.41 691.83c-3.64 14.66 5.3 29.5 19.96 33.14 14.66 3.64 29.5-5.3 33.14-19.96 3.64-14.66-5.3-29.5-19.96-33.14-14.67-3.64-29.5 5.29-33.14 19.96zm51.37 12.74c-3.4 13.71-16.52 19.03-30.22 15.63-12.62-3.13-18.34-15.89-15.59-27 3.4-13.71 13.45-23.01 27.15-19.61 13.7 3.41 22.06 17.28 18.66 30.98z"/><path class="st2" d="M670.35 676.76c1.43 1.21-4.43 2.13-8.02 6.36-3.58 4.23-3.53 10.16-4.96 8.95s3.09-8.93 3.9-9.85c1.33-1.51 7.65-6.67 9.08-5.46zM1135.49 596.64c9.71-11.57 8.2-28.83-3.37-38.54s-28.83-8.2-38.54 3.37-8.2 28.83 3.37 38.54 28.82 8.2 38.54-3.37zm-40.55-34.03c9.08-10.82 23.2-9.84 34.02-.76 9.96 8.36 9.5 22.33 2.14 31.1-9.08 10.82-22.19 14.76-33.01 5.68-10.81-9.07-12.22-25.2-3.15-36.02z"/><path class="st2" d="M1109.16 600.53c-.75-1.72 4.92.03 9.99-2.19 5.08-2.22 7.63-7.58 8.39-5.86.75 1.72-6.7 6.66-7.83 7.13-1.86.78-9.8 2.64-10.55.92zM1148.37 502.16c-1.68 15.01 9.13 28.55 24.15 30.22 15.01 1.68 28.55-9.13 30.22-24.15 1.68-15.01-9.13-28.55-24.15-30.22-15.01-1.67-28.54 9.14-30.22 24.15zm52.6 5.88c-1.57 14.04-13.87 21.04-27.91 19.47-12.93-1.44-20.27-13.34-19-24.71 1.57-14.04 10.3-24.58 24.34-23.01 14.03 1.57 24.13 14.22 22.57 28.25z"/><path class="st2" d="M1168.14 484.34c1.58 1.01-4.11 2.7-7.11 7.36s-2.16 10.54-3.74 9.53 1.89-9.26 2.57-10.28c1.12-1.68 6.7-7.62 8.28-6.61zM1118.69 694.98c-.51 34.57 27.11 63.01 61.69 63.51 34.57.51 63.01-27.11 63.52-61.69.51-34.57-27.11-63.01-61.69-63.51s-63.02 27.11-63.52 61.69zm121.12 1.77c-.47 32.32-26.95 50.99-59.27 50.52-29.77-.43-49.13-25.9-48.75-52.1.47-32.32 18.04-58.27 50.35-57.79 32.32.47 58.14 27.05 57.67 59.37z"/><path class="st2" d="M1159.78 650.01c3.81 1.96-8.78 7.05-14.57 18.33-5.79 11.28-2.59 24.48-6.41 22.52-3.81-1.96 2.26-21.52 3.58-23.97 2.18-4.06 13.59-18.84 17.4-16.88zM891.26 517.11c3.53-2.43 2.05 11.07 9.24 21.52s20.33 13.89 16.8 16.32-17.87-12.19-19.41-14.52c-2.55-3.85-10.16-20.89-6.63-23.32z"/><path class="st2" d="m1000.18 542.67-6.14-16.01c-1.53 6.14-3.97 12.29-7.3 18.27-14.49 26-46.09 30.99-68.98 18.23-28.23-15.73-42.76-43.5-27.02-71.73 15.73-28.23 51.38-38.37 79.61-22.63.66.37 1.3.76 1.94 1.15l-2.27-5.93c-29.81-15.04-66.44-4-82.84 25.43-16.83 30.2-5.99 68.33 24.21 85.16s68.33 5.99 85.16-24.21a63.67 63.67 0 0 0 3.63-7.73z"/><linearGradient id="SVGID_1_" gradientUnits="userSpaceOnUse" x1="-498.484" y1="750.864" x2="-328.606" y2="887.661" gradientTransform="matrix(1 0 0 -1 0 1080)"><stop offset="0" style="stop-color:#fff;stop-opacity:0"/><stop offset="1" style="stop-color:#fff"/></linearGradient><circle cx="-439.85" cy="281.92" r="85.28" style="fill:url(#SVGID_1_)"/><linearGradient id="SVGID_00000094584364283787969480000018433844324329329317_" gradientUnits="userSpaceOnUse" x1="-323.074" y1="954.094" x2="-153.196" y2="1090.891" gradientTransform="matrix(1 0 0 -1 0 1080)"><stop offset="0" style="stop-color:#fff;stop-opacity:0"/><stop offset="1" style="stop-color:#fff"/></linearGradient><circle style="fill:url(#SVGID_00000094584364283787969480000018433844324329329317_)" cx="-264.44" cy="78.69" r="85.28"/><linearGradient id="SVGID_00000090983876491437597460000007789158415847770293_" gradientUnits="userSpaceOnUse" x1="-328.166" y1="686.792" x2="-158.288" y2="823.589" gradientTransform="matrix(1 0 0 -1 0 1080)"><stop offset="0" style="stop-color:#fff;stop-opacity:0"/><stop offset="1" style="stop-color:#fff"/></linearGradient><circle style="fill:url(#SVGID_00000090983876491437597460000007789158415847770293_)" cx="-269.53" cy="345.99" r="85.28"/><linearGradient id="SVGID_00000104685150688945251260000006885382402936525725_" gradientUnits="userSpaceOnUse" x1="222.973" y1="571.414" x2="392.851" y2="708.21" gradientTransform="scale(1 -1) rotate(63.832 888.001 -161.96)"><stop offset="0" style="stop-color:#fff;stop-opacity:0"/><stop offset="1" style="stop-color:#fff"/></linearGradient><circle style="fill:url(#SVGID_00000104685150688945251260000006885382402936525725_)" cx="-80" cy="361.97" r="85.28"/><linearGradient id="SVGID_00000131351845229350410310000014760188632049227668_" gradientUnits="userSpaceOnUse" x1="-210.176" y1="845.437" x2="-91.826" y2="940.74" gradientTransform="scale(1 -1) rotate(23.296 3111.947 -162.425)"><stop offset="0" style="stop-color:#fff;stop-opacity:0"/><stop offset="1" style="stop-color:#fff"/></linearGradient><circle style="fill:url(#SVGID_00000131351845229350410310000014760188632049227668_)" cx="-313.42" cy="504.23" r="59.41"/><path class="st2" d="M-50.1 139.15c13.46-34.5-3.6-73.38-38.1-86.84s-73.38 3.6-86.84 38.1 3.6 73.38 38.1 86.84 73.38-3.6 86.84-38.1zM-170.96 92c12.58-32.25 46.14-41.06 78.39-28.48 29.7 11.59 39.59 44.39 29.39 70.53-12.58 32.25-39.92 51.7-72.17 39.12s-48.2-48.92-35.61-81.17z"/><path class="st2" d="M-108.18 168.88c-3.09-3.39 11.45-3.79 21.49-12.94 10.04-9.15 11.77-23.59 14.87-20.2 3.09 3.39-10.33 20.74-12.58 22.71-3.71 3.27-20.69 13.82-23.78 10.43z"/><linearGradient id="SVGID_00000145055532042119886460000008503841767922338994_" gradientUnits="userSpaceOnUse" x1="-256.978" y1="680.937" x2="-138.629" y2="776.24" gradientTransform="scale(1 -1) rotate(-88.017 -594.503 247.22)"><stop offset="0" style="stop-color:#fff;stop-opacity:0"/><stop offset="1" style="stop-color:#fff"/></linearGradient><circle style="fill:url(#SVGID_00000145055532042119886460000008503841767922338994_)" cx="-115.08" cy="114.78" r="59.41"/><linearGradient id="SVGID_00000021098577752177932120000017942885075797331079_" gradientUnits="userSpaceOnUse" x1="352.553" y1="804.384" x2="470.903" y2="899.687" gradientTransform="scale(1 -1) rotate(82.34 752.673 4.123)"><stop offset="0" style="stop-color:#fff;stop-opacity:0"/><stop offset="1" style="stop-color:#fff"/></linearGradient><circle style="fill:url(#SVGID_00000021098577752177932120000017942885075797331079_)" cx="-120.94" cy="240.89" r="59.41"/><linearGradient id="SVGID_00000150823492524629109260000011823858726076208274_" gradientUnits="userSpaceOnUse" x1="423.909" y1="635.72" x2="501.507" y2="698.207" gradientTransform="scale(1 -1) rotate(82.34 752.673 4.123)"><stop offset="0" style="stop-color:#fff;stop-opacity:0"/><stop offset="1" style="stop-color:#fff"/></linearGradient><circle style="fill:url(#SVGID_00000150823492524629109260000011823858726076208274_)" cx="65.09" cy="208.11" r="38.96"/><linearGradient id="SVGID_00000103256737523202856700000001014926377978724763_" gradientUnits="userSpaceOnUse" x1="291.586" y1="886.155" x2="369.183" y2="948.641" gradientTransform="scale(1 -1) rotate(48.6 1363.102 -26.977)"><stop offset="0" style="stop-color:#fff;stop-opacity:0"/><stop offset="1" style="stop-color:#fff"/></linearGradient><circle style="fill:url(#SVGID_00000103256737523202856700000001014926377978724763_)" cx="-28.92" cy="192.52" r="38.96"/><linearGradient id="SVGID_00000103261917232399572730000013586767415475052948_" gradientUnits="userSpaceOnUse" x1="32.115" y1="792.839" x2="109.713" y2="855.326" gradientTransform="scale(1 -1) rotate(10.457 6223.217 244.932)"><stop offset="0" style="stop-color:#fff;stop-opacity:0"/><stop offset="1" style="stop-color:#fff"/></linearGradient><circle style="fill:url(#SVGID_00000103261917232399572730000013586767415475052948_)" cx="57.92" cy="313.87" r="38.96"/><linearGradient id="SVGID_00000044153594166499873240000016502206168721777077_" gradientUnits="userSpaceOnUse" x1="-630.739" y1="548.245" x2="-553.141" y2="610.732" gradientTransform="scale(1 -1) rotate(-84.439 -889.158 26.14)"><stop offset="0" style="stop-color:#fff;stop-opacity:0"/><stop offset="1" style="stop-color:#fff"/></linearGradient><circle style="fill:url(#SVGID_00000044153594166499873240000016502206168721777077_)" cx="-320.41" cy="205.04" r="38.96"/><linearGradient id="SVGID_00000064329005733252928560000004322421575690907049_" gradientUnits="userSpaceOnUse" x1="-343.224" y1="276.181" x2="-265.626" y2="338.667" gradientTransform="scale(-1 1) rotate(63.832 -51.454 930.552)"><stop offset="0" style="stop-color:#fff;stop-opacity:0"/><stop offset="1" style="stop-color:#fff"/></linearGradient><circle style="fill:url(#SVGID_00000064329005733252928560000004322421575690907049_)" cx="-399.63" cy="413.65" r="38.96"/><linearGradient id="SVGID_00000058547484644214413370000010348214869143340950_" gradientUnits="userSpaceOnUse" x1="-442.065" y1="733.057" x2="-364.467" y2="795.543" gradientTransform="scale(1 -1) rotate(-74.222 -1140.856 -18.945)"><stop offset="0" style="stop-color:#fff;stop-opacity:0"/><stop offset="1" style="stop-color:#fff"/></linearGradient><circle style="fill:url(#SVGID_00000058547484644214413370000010348214869143340950_)" cx="-199.14" cy="506.83" r="38.96"/><linearGradient id="SVGID_00000165956059846487407500000005866112019485783728_" gradientUnits="userSpaceOnUse" x1="-64.544" y1="494.214" x2="105.334" y2="631.011" gradientTransform="scale(1 -1) rotate(15.778 3674 354.443)"><stop offset="0" style="stop-color:#fff;stop-opacity:0"/><stop offset="1" style="stop-color:#fff"/></linearGradient><circle style="fill:url(#SVGID_00000165956059846487407500000005866112019485783728_)" cx="81.88" cy="466.21" r="85.28"/><linearGradient id="SVGID_00000009559889549802542370000010036407850020310191_" gradientUnits="userSpaceOnUse" x1="680.334" y1="-75.929" x2="831.322" y2="45.655" gradientTransform="scale(1 -1) rotate(53.744 1490.47 -435.566)"><stop offset="0" style="stop-color:#fff;stop-opacity:0"/><stop offset="1" style="stop-color:#fff"/></linearGradient><circle style="fill:url(#SVGID_00000009559889549802542370000010036407850020310191_)" cx="718.35" cy="809.35" r="75.8"/><linearGradient id="SVGID_00000016785628993874913150000014589928053374588056_" gradientUnits="userSpaceOnUse" x1="599.525" y1="-485.418" x2="750.513" y2="-363.833" gradientTransform="scale(-1 1) rotate(-13.815 4937.608 5095.118)"><stop offset="0" style="stop-color:#fff;stop-opacity:0"/><stop offset="1" style="stop-color:#fff"/></linearGradient><circle style="fill:url(#SVGID_00000016785628993874913150000014589928053374588056_)" cx="546.97" cy="740.25" r="75.8"/><linearGradient id="SVGID_00000178910947311321101330000018038245192524831626_" gradientUnits="userSpaceOnUse" x1="256.243" y1="-165.645" x2="407.23" y2="-44.06" gradientTransform="scale(1 -1) rotate(70.172 1048.942 123.834)"><stop offset="0" style="stop-color:#fff;stop-opacity:0"/><stop offset="1" style="stop-color:#fff"/></linearGradient><circle style="fill:url(#SVGID_00000178910947311321101330000018038245192524831626_)" cx="1030.55" cy="656.77" r="75.8"/><linearGradient id="SVGID_00000181046255860371151540000005995473375002263977_" gradientUnits="userSpaceOnUse" x1="345.329" y1="109.52" x2="496.316" y2="231.105" gradientTransform="scale(1 -1) rotate(70.172 1048.942 123.834)"><stop offset="0" style="stop-color:#fff;stop-opacity:0"/><stop offset="1" style="stop-color:#fff"/></linearGradient><circle style="fill:url(#SVGID_00000181046255860371151540000005995473375002263977_)" cx="801.92" cy="479.63" r="75.8"/><linearGradient id="SVGID_00000021085827419249280170000012266030253597717918_" gradientUnits="userSpaceOnUse" x1="430.164" y1="-132.083" x2="581.152" y2="-10.499" gradientTransform="scale(1 -1) rotate(70.172 1048.942 123.834)"><stop offset="0" style="stop-color:#fff;stop-opacity:0"/><stop offset="1" style="stop-color:#fff"/></linearGradient><circle style="fill:url(#SVGID_00000021085827419249280170000012266030253597717918_)" cx="1057.97" cy="481.77" r="75.8"/><linearGradient id="SVGID_00000179620758011913585180000013267379361086601860_" gradientUnits="userSpaceOnUse" x1="179.388" y1="64.391" x2="330.375" y2="185.975" gradientTransform="scale(1 -1) rotate(70.172 1048.942 123.834)"><stop offset="0" style="stop-color:#fff;stop-opacity:0"/><stop offset="1" style="stop-color:#fff"/></linearGradient><circle style="fill:url(#SVGID_00000179620758011913585180000013267379361086601860_)" cx="788.09" cy="651.05" r="75.8"/><linearGradient id="SVGID_00000124872405746459631340000008641624357939020418_" gradientUnits="userSpaceOnUse" x1="-242.91" y1="-23.596" x2="-91.922" y2="97.989" gradientTransform="scale(1 -1) rotate(9.149 5596.097 6874.67)"><stop offset="0" style="stop-color:#fff;stop-opacity:0"/><stop offset="1" style="stop-color:#fff"/></linearGradient><circle style="fill:url(#SVGID_00000124872405746459631340000008641624357939020418_)" cx="973" cy="814.49" r="75.8"/><linearGradient id="SVGID_00000015354477294037589610000009554445619751794336_" gradientUnits="userSpaceOnUse" x1="-526.7" y1="223.44" x2="-434.397" y2="297.768" gradientTransform="scale(1 -1) rotate(9.149 5596.097 6874.67)"><stop offset="0" style="stop-color:#fff;stop-opacity:0"/><stop offset="1" style="stop-color:#fff"/></linearGradient><circle style="fill:url(#SVGID_00000015354477294037589610000009554445619751794336_)" cx="636.12" cy="635.05" r="46.34"/><linearGradient id="SVGID_00000072958972935468315190000012459020204630652569_" gradientUnits="userSpaceOnUse" x1="26.04" y1="177.88" x2="118.344" y2="252.208" gradientTransform="scale(1 -1) rotate(9.149 5596.097 6874.67)"><stop offset="0" style="stop-color:#fff;stop-opacity:0"/><stop offset="1" style="stop-color:#fff"/></linearGradient><circle style="fill:url(#SVGID_00000072958972935468315190000012459020204630652569_)" cx="1189.09" cy="592.14" r="46.34"/><linearGradient id="SVGID_00000096031219498730461350000004504764074323714495_" gradientUnits="userSpaceOnUse" x1="389.577" y1="-339.513" x2="497.199" y2="-252.85" gradientTransform="scale(-1 1) rotate(-64.258 422.966 1473.279)"><stop offset="0" style="stop-color:#fff;stop-opacity:0"/><stop offset="1" style="stop-color:#fff"/></linearGradient><circle style="fill:url(#SVGID_00000096031219498730461350000004504764074323714495_)" cx="1181.29" cy="695.51" r="54.03"/><linearGradient id="SVGID_00000119827934632522280860000014830193418960606363_" gradientUnits="userSpaceOnUse" x1="311.506" y1="-498.264" x2="419.128" y2="-411.6" gradientTransform="scale(-1 1) rotate(15.778 -3844.565 -4625.948)"><stop offset="0" style="stop-color:#fff;stop-opacity:0"/><stop offset="1" style="stop-color:#fff"/></linearGradient><circle style="fill:url(#SVGID_00000119827934632522280860000014830193418960606363_)" cx="939.8" cy="515.14" r="54.03"/><linearGradient id="SVGID_00000151513292470648052470000011697234099863408258_" gradientUnits="userSpaceOnUse" x1="-575.664" y1="-210.866" x2="-496.252" y2="-146.918" gradientTransform="scale(1 -1) rotate(-70.007 -187.096 -1482.404)"><stop offset="0" style="stop-color:#fff;stop-opacity:0"/><stop offset="1" style="stop-color:#fff"/></linearGradient><circle style="fill:url(#SVGID_00000151513292470648052470000011697234099863408258_)" cx="904.99" cy="700.66" r="39.87"/><linearGradient id="SVGID_00000118395391763831275120000001677692638459565485_" gradientUnits="userSpaceOnUse" x1="-438.503" y1="-51.798" x2="-359.09" y2="12.15" gradientTransform="scale(1 -1) rotate(-70.007 -187.096 -1482.404)"><stop offset="0" style="stop-color:#fff;stop-opacity:0"/><stop offset="1" style="stop-color:#fff"/></linearGradient><circle style="fill:url(#SVGID_00000118395391763831275120000001677692638459565485_)" cx="1101.37" cy="775.17" r="39.87"/><linearGradient id="SVGID_00000167354779345696748710000015524316353134927235_" gradientUnits="userSpaceOnUse" x1="-762.977" y1="-497.009" x2="-683.564" y2="-433.061" gradientTransform="scale(-1 1) rotate(86.813 -1261.13 60.14)"><stop offset="0" style="stop-color:#fff;stop-opacity:0"/><stop offset="1" style="stop-color:#fff"/></linearGradient><circle style="fill:url(#SVGID_00000167354779345696748710000015524316353134927235_)" cx="697.73" cy="555.22" r="39.87"/><text transform="rotate(-.951 13197.585 22033.694)" class="st35 st36"> </text><text class="st35 st36"> </text><path id="SVGID_x5F_00000163794281870752899560000016163648329174189197_x5F_" d="M-471.04 279.43s65.54-60.19 219.32-65.56c415.23-14.51 485.85 79.77 485.85 79.77" style="fill:none"/><text transform="rotate(-36.857 180.64 838.368)" class="st35 st36"> </text><text class="st35 st36"> </text></svg>