<svg xmlns="http://www.w3.org/2000/svg" xml:space="preserve" style="enable-background:new 0 0 400 400" viewBox="0 0 400 400"><style>.st1{display:inline;fill:#ff2417}</style><g id="レイヤー_2"><path d="M243 256.4c-1.7 0-3.4-.5-5-1.5l-38-24.3-38 24.3c-3.2 2.1-7.3 1.9-10.4-.3-3.1-2.2-4.5-6.1-3.5-9.8l11.3-43.7-34.8-28.7c-3-2.4-4.1-6.4-2.9-10 1.2-3.6 4.4-6.2 8.2-6.4l45-2.7 16.5-42c1.4-3.6 4.8-5.9 8.6-5.9s7.2 2.4 8.6 5.9l16.5 42 45 2.7c3.8.2 7.1 2.7 8.2 6.4 1.2 3.6 0 7.6-2.9 10l-34.8 28.7 11.3 43.6c1 3.7-.4 7.6-3.5 9.8-1.6 1.3-3.5 1.9-5.4 1.9zm-111.7-90.8 34.4 28.3c2.8 2.3 4 6 3.1 9.5l-11.2 43.1 37.5-23.9c3-1.9 6.9-1.9 10 0l37.5 23.9-11.2-43.1c-.9-3.5.3-7.2 3.1-9.5l34.4-28.3-44.4-2.7c-3.6-.2-6.7-2.5-8.1-5.9L200 115.7l-16.3 41.4c-1.3 3.3-4.5 5.6-8.1 5.9l-44.3 2.6z"/><path d="m310.7 347.5-104.6-61.2c-3.8-2.2-8.4-2.2-12.1 0L92.2 345.8c-7.8 4.6-17.7-1.1-17.7-10.1V58.2c0-4.8 3.9-8.6 8.6-8.6h233.7c4.8 0 8.6 3.9 8.6 8.6V339c0 7.6-8.2 12.3-14.7 8.5zM83.6 67.2V332c0 3.7 4 6 7.2 4.1l101.7-59.6c4.6-2.7 10.3-2.7 15 0l105 61.5c1.8 1 4-.2 4-2.3V67.2c0-4.8-3.9-8.6-8.6-8.6H92.2c-4.8 0-8.6 3.8-8.6 8.6z"/></g></svg>