<svg xmlns="http://www.w3.org/2000/svg" viewBox="0 0 400 400" style="enable-background:new 0 0 400 400" xml:space="preserve"><style>.st0{display:none}.st4{display:inline}.st5,.st7{fill:#fff}.st7{display:inline}.st43{fill:#c8c8c8}.st50{fill:#282828}.st54,.st55{display:inline;fill:#e9e9e9}.st55{fill:#e77100}.st60{fill:#e8f9ff}.st64{display:inline}.st64,.st65{fill:#39c94a}.st72{display:inline;fill:#e01e5a}.st73,.st74,.st75{display:inline;fill:#ecb22d}.st74,.st75{fill:#2fb67c}.st75{fill:#36c5f1}</style><g id="cabnet_00000078758642072325114710000010820263828538455967_"><g id="cabnet"><path style="fill:none" d="M0 0h400v400H0z"/><path d="M304.26 45.94H96.2c-10.33 0-18.71 8.38-18.71 18.71v253.98c0 8.3 5.41 15.32 12.89 17.77v9.77c0 4.36 3.21 7.89 7.16 7.89h17.29c3.96 0 7.16-3.53 7.16-7.89v-8.83h156.89v8.83c0 4.36 3.21 7.89 7.16 7.89h17.29c3.96 0 7.16-3.53 7.16-7.89v-9.92c7.26-2.57 12.47-9.48 12.47-17.62V64.65c.01-10.33-8.36-18.71-18.7-18.71zM112.07 344.35H99.89v-7h12.19v7h-.01zm176.32 0v-7h12.19v7h-12.19zm25.51-26.85c0 5.64-4.57 10.2-10.2 10.2H96.77c-5.64 0-10.2-4.57-10.2-10.2V64.65c0-5.64 4.57-10.2 10.2-10.2H303.7c5.64 0 10.2 4.57 10.2 10.2V317.5z"/><path d="M288.53 153.94h-176.6c-6.03 0-10.91 4.89-10.91 10.91v52.44c0 6.03 4.89 10.91 10.91 10.91h176.6c6.03 0 10.91-4.89 10.91-10.91v-52.44c0-6.02-4.88-10.91-10.91-10.91zm1.28 63.78H110.09v-54.71h179.72v54.71zM288.25 68.05h-176.6c-6.03 0-10.91 4.89-10.91 10.91v17.01c0 .86.7 1.56 1.56 1.56h5.95c.86 0 1.56-.7 1.56-1.56V77.12h179.72v54.71H109.81v-19.42c0-.86-.7-1.56-1.56-1.56h-5.95c-.86 0-1.56.7-1.56 1.56v18.99c0 6.03 4.89 10.91 10.91 10.91h176.6c6.03 0 10.91-4.89 10.91-10.91V78.97c0-6.03-4.88-10.92-10.91-10.92zM111.93 314.1h176.6c6.03 0 10.91-4.89 10.91-10.91v-17.01c0-.86-.7-1.56-1.56-1.56h-5.95c-.86 0-1.56.7-1.56 1.56v18.85H110.66v-54.71h179.72v19.42c0 .86.7 1.56 1.56 1.56h5.95c.86 0 1.56-.7 1.56-1.56v-18.99c0-6.03-4.89-10.91-10.91-10.91h-176.6c-6.03 0-10.91 4.89-10.91 10.91v52.44c-.01 6.02 4.88 10.91 10.9 10.91z"/><path d="M213.51 99.99h-27.59c-4.57 0-8.27 3.7-8.27 8.27v2.83c0 1.17.95 2.13 2.13 2.13h4.06c1.17 0 2.13-.95 2.13-2.13v-1.32c0-.5.4-.9.9-.9h25.61c.5 0 .9.4.9.9v1.32c0 1.17.95 2.13 2.13 2.13h4.16c1.17 0 2.13-.95 2.13-2.13v-2.83c-.02-4.57-3.73-8.27-8.29-8.27zM214.03 184.46h-27.59c-4.57 0-8.27 3.7-8.27 8.27v2.83c0 1.17.95 2.13 2.13 2.13h4.06c1.17 0 2.13-.95 2.13-2.13v-1.32c0-.5.4-.9.9-.9H213c.5 0 .9.4.9.9v1.32c0 1.17.95 2.13 2.13 2.13h4.16c1.17 0 2.13-.95 2.13-2.13v-2.83c-.02-4.57-3.73-8.27-8.29-8.27zM214.03 270.35h-27.59c-4.57 0-8.27 3.7-8.27 8.27v2.83c0 1.17.95 2.13 2.13 2.13h4.06c1.17 0 2.13-.95 2.13-2.13v-1.32c0-.5.4-.9.9-.9H213c.5 0 .9.4.9.9v1.32c0 1.17.95 2.13 2.13 2.13h4.16c1.17 0 2.13-.95 2.13-2.13v-2.83c-.02-4.57-3.73-8.27-8.29-8.27z"/></g></g></svg>