<?xml version="1.0" encoding="utf-8"?>
<!-- Generator: Adobe Illustrator 26.5.0, SVG Export Plug-In . SVG Version: 6.00 Build 0)  -->
<svg version="1.1" id="レイヤー_1" xmlns="http://www.w3.org/2000/svg" xmlns:xlink="http://www.w3.org/1999/xlink" x="0px"
	 y="0px" viewBox="0 0 400 400" style="enable-background:new 0 0 400 400;" xml:space="preserve">
<style type="text/css">
	.st0{opacity:0.5;}
	.st1{fill:#FFFFFF;}
</style>
<g id="camera_00000162351109381616472060000016648179852053463997_" class="st0">
	<path class="st1" d="M350.5,126.6h-72.4l-25.6-51.9c-2.1-4.3-6.5-7.1-11.4-7.1h-83.9c-4.9,0-9.4,2.9-11.5,7.3l-23.9,51.6H50.6
		c-13.6,0-24.6,11-24.6,24.6v157.6c0,13.6,11,24.6,24.6,24.6h299.9c13.6,0,24.6-11,24.6-24.6V151.1C375,137.6,364,126.6,350.5,126.6
		z M163.6,77.6h71.3c4.8,0,9.2,2.7,11.4,7.1l20.7,41.9H132.8l19.3-41.6C154.2,80.5,158.7,77.6,163.6,77.6L163.6,77.6z M365,308.7
		c0,8-6.5,14.6-14.6,14.6H50.6c-8,0-14.6-6.5-14.6-14.6V151.1c0-8,6.5-14.6,14.6-14.6h299.9c8,0,14.6,6.5,14.6,14.6V308.7z"/>
	<path class="st1" d="M299.6,162.2h37v20.9h-37V162.2z M200.5,165.2c32.3,0,58.6,26.3,58.6,58.6s-26.3,58.6-58.6,58.6
		s-58.6-26.3-58.6-58.6S168.2,165.2,200.5,165.2 M200.5,155.2c-37.9,0-68.6,30.7-68.6,68.6s30.7,68.6,68.6,68.6s68.6-30.7,68.6-68.6
		C269.1,185.9,238.4,155.2,200.5,155.2z"/>
</g>
</svg>
