<svg xmlns="http://www.w3.org/2000/svg" viewBox="0 0 400 400" style="enable-background:new 0 0 400 400" xml:space="preserve"><style>.st0{display:none}.st4{display:inline}.st5,.st7{fill:#fff}.st7{display:inline}.st43{fill:#c8c8c8}.st50{fill:#282828}.st54,.st55{display:inline;fill:#e9e9e9}.st55{fill:#e77100}.st60{fill:#e8f9ff}.st64{display:inline}.st64,.st65{fill:#39c94a}.st72{display:inline;fill:#e01e5a}.st73,.st74,.st75{display:inline;fill:#ecb22d}.st74,.st75{fill:#2fb67c}.st75{fill:#36c5f1}</style><g id="camera_00000162351109381616472060000016648179852053463997_"><path d="M350.47 126.55h-72.36l-25.65-51.91a12.648 12.648 0 0 0-11.35-7.05h-83.89c-4.93 0-9.42 2.86-11.49 7.34l-23.93 51.62H50.56c-13.56 0-24.56 11-24.56 24.56v157.61c0 13.56 11 24.56 24.56 24.56h299.91c13.56 0 24.56-11 24.56-24.56V151.11c0-13.56-11-24.56-24.56-24.56zM163.61 77.59h71.29c4.82 0 9.22 2.73 11.35 7.05l20.7 41.91H132.83l19.29-41.62c2.07-4.48 6.56-7.34 11.49-7.34zm201.42 231.12c0 8.03-6.53 14.56-14.56 14.56H50.56c-8.03 0-14.56-6.53-14.56-14.56v-157.6c0-8.03 6.53-14.56 14.56-14.56h299.91c8.03 0 14.56 6.53 14.56 14.56v157.6z"/><path d="M299.62 162.2h36.96v20.94h-36.96zM200.52 165.24c32.31 0 58.6 26.29 58.6 58.6s-26.29 58.6-58.6 58.6-58.6-26.29-58.6-58.6 26.28-58.6 58.6-58.6m0-10c-37.89 0-68.6 30.71-68.6 68.6 0 37.89 30.71 68.6 68.6 68.6s68.6-30.71 68.6-68.6c-.01-37.89-30.72-68.6-68.6-68.6z"/></g></svg>