<svg xmlns="http://www.w3.org/2000/svg" viewBox="0 0 400 400" style="enable-background:new 0 0 400 400" xml:space="preserve"><style>.st0{display:none}.st4{display:inline}.st5{fill:#fff}.st10,.st7{display:inline;fill:#fff}.st10{fill:none}.st43{fill:#c8c8c8}.st50{fill:#282828}.st54,.st55{display:inline;fill:#e9e9e9}.st55{fill:#e77100}.st59{fill:#e8f9ff}.st63{display:inline}.st63,.st64{fill:#39c94a}.st71{display:inline;fill:#e01e5a}.st72,.st73,.st74{display:inline;fill:#ecb22d}.st73,.st74{fill:#2fb67c}.st74{fill:#36c5f1}.st80{stroke:#000;stroke-miterlimit:10}</style><g id="LaundryHelpMe"><linearGradient id="SVGID_00000019654948472847428160000000780948006529842606_" gradientUnits="userSpaceOnUse" x1="198.2" y1="-40.595" x2="201.602" y2="414.082"><stop offset="0" style="stop-color:#fff"/><stop offset=".446" style="stop-color:#fdfdfd"/><stop offset=".606" style="stop-color:#f6f6f6"/><stop offset=".721" style="stop-color:#ebebeb"/><stop offset=".813" style="stop-color:#dadada"/><stop offset=".892" style="stop-color:#c4c4c4"/><stop offset=".961" style="stop-color:#a9a9a9"/><stop offset="1" style="stop-color:#969696"/></linearGradient><path style="fill:url(#SVGID_00000019654948472847428160000000780948006529842606_)" d="M315.86 400H84.14C37.67 400 0 362.33 0 315.86V84.14C0 37.67 37.67 0 84.14 0h231.71C362.33 0 400 37.67 400 84.14v231.71c0 46.48-37.67 84.15-84.14 84.15z"/><circle cx="198.3" cy="201.98" r="133.49" style="fill:#f8cccc"/><path class="st43" d="M199.53 48.49c-60.38 0-112.47 35.4-136.69 86.58V135H38.1v129.3h24.74v-.07c24.22 51.17 76.32 86.58 136.69 86.58 83.48 0 151.15-67.67 151.15-151.15 0-83.49-67.67-151.17-151.15-151.17zm92.74 243.9c-24.77 24.77-57.71 38.41-92.74 38.41-35.03 0-67.97-13.64-92.74-38.41-24.77-24.77-38.41-57.71-38.41-92.74 0-35.03 13.64-67.97 38.41-92.74 24.77-24.77 57.71-38.41 92.74-38.41 35.03 0 67.97 13.64 92.74 38.41 24.77 24.77 38.41 57.71 38.41 92.74 0 35.03-13.64 67.97-38.41 92.74z"/><path d="M280.17 292.13c-24.84 14.5-58.39 23.24-88.02 20.41-25.56-2.45-53.58-19.25-63.64-41.1-11.48-24.94-7.65-41.95 5.81-63.5 13.46-21.54 41.95-28.06 67.61-18.43 18.74 7.04 26.93 33.87 21.26 46.63-10.39 23.37-34.82 12.8-34.82 12.8s31.37 14.02 38.93-13.93c6.66-24.66-8.22-32.04-10.2-39.26-.91-3.32 4.82-2.69 3.54-8.79-1.66-7.95-19.33-3.39-22.96-8.08-3.29-4.25 6.38-5.95-3.97-11.91-6.87-3.95-17.72 11.48-27.92 8.22-6.36-2.03-1.5-10.91-14.74-10.91-7.8 0-17.29 32.46-29.76 31.04-7.93-.9-8.36-14.74-18.14-14.17-6.51.38-12.33 13.04-23.53 17.01-11.2 3.97-11.21-1.7-11.21-1.7-.03 1.06-.04 2.12-.04 3.19 0 35.03 13.64 67.97 38.41 92.74 24.77 24.77 57.71 38.41 92.74 38.41 35.03 0 67.97-13.64 92.74-38.41 4.64-4.64 8.89-9.57 12.73-14.74l.01-.01c.01-.01.01-.01-24.83 14.49z" style="fill:#81c5da"/><path class="st59" d="M70.06 178.5s2.04 5.49 7.71 2.08c5.67-3.4 3.69-19.28 9.64-24.66 4.89-4.42 7.09.57 11.34 0s5.28-5.63 8.79-6.8c6.8-2.27 6.52 9.92 11.62 10.77 5.1.85 18.71-27.5 37.13-25.51 7.97.86 4.82 4.82 8.22 5.1s9.64-3.97 13.04-1.7c3.4 2.27-1.42 8.79 0 11.91 1.42 3.12 18.99-7.94 27.78-6.52 8.79 1.42 12.76 11.34 15.31 12.76 2.55 1.42 7.94 0 10.2 5.95 2.27 5.95-5.67 2.27-5.1 6.24.57 3.97 16.72 7.09 18.43 16.44 1.7 9.35-3.4 13.04-3.97 19.28s10.2 17.01 8.22 24.38c-1.98 7.37-8.79 8.22-10.2 11.06s-1.98 13.89-7.09 17.01c-5.1 3.12-14.46 2.55-18.99 3.69-4.54 1.13-4.14 4.16-9.92 4.25-11.62.19-24.66-26.36-24.66-26.36s31.81 43.82 56.69-.28c12.47-22.11-2.27-27.78-1.42-34.87.85-7.09 6.52-6.8 3.97-16.16-2.55-9.35-21.2-12.03-25.23-16.44-5.95-6.52 4.54-9.92-3.69-17.01-9.93-8.56-19.28 2.55-35.72 5.67-8.23 1.56 2.27-13.04-9.07-15.59-26.2-5.89-36.85 31.18-48.47 30.05-6.26-.61-.85-19.84-17.01-9.92-8.98 5.51-5.63 15.87-11.91 20.41-8.22 5.95-16.51 1.16-16.51 1.16l.87-6.39zM248.67 170.67s15.06 1.42 17.9 8.79c2.83 7.37 2.27 11.34-2.83 11.34s-5.67-2.83-7.37-8.22c-1.71-5.39-7.7-11.91-7.7-11.91zM269.68 203.83s11.87 3.89 17.29 15.02c4.3 8.83 1.51 15.3-3.12 15.31-11.1.02-3.12-7.84-5.81-16.87-2.21-7.41-8.36-13.46-8.36-13.46z"/><path class="st59" d="M245.66 207.94s13.97 12.65 14.88 23.03c1.91 21.9-11.87 32.95-17.43 26.72-8.06-9.05 8.57-15.52 9-21.12 1.6-21.12-6.45-28.63-6.45-28.63zM129.65 138.64s-2.27-16.58 8.22-20.62c9.88-3.81 15.85-3.53 16.16 1.91.5 8.79-6.25 5.41-12.2 6.96s-12.18 11.75-12.18 11.75z"/><path d="M68.41 196.46s.01 5.67 11.21 1.7c11.2-3.97 17.02-16.63 23.53-17.01 9.78-.57 10.21 13.27 18.14 14.17 12.47 1.42 21.97-31.04 29.76-31.04 13.24 0 8.38 8.88 14.74 10.91 10.2 3.26 21.05-12.17 27.92-8.22 10.35 5.95.68 7.65 3.97 11.91 3.63 4.69 21.3.13 22.96 8.08 1.28 6.09-4.46 5.47-3.54 8.79 1.98 7.22 16.87 14.6 10.2 39.26-5.73 21.22-25.18 18.25-34.23 15.59l-2.13.27c11.55 8.13 28.63 12.7 43.3-13.31 12.47-22.11-2.27-27.78-1.42-34.87.85-7.09 6.52-6.8 3.97-16.16-2.55-9.35-21.2-12.03-25.23-16.44-5.95-6.52 4.54-9.92-3.68-17.01-9.93-8.56-19.28 2.55-35.72 5.67-8.23 1.56 2.27-13.04-9.07-15.59-26.2-5.89-36.85 31.18-48.47 30.05-6.26-.61-.85-19.84-17.01-9.92-8.98 5.51-5.63 15.87-11.91 20.41-8.17 5.92-16.41 1.22-16.51 1.16-.54 4.87-.83 9.81-.83 14.78.01-1.05.03-2.12.05-3.18z" style="fill:#a5d4e4"/></g></svg>