<svg version="1.1" id="_レイヤー_3" xmlns="http://www.w3.org/2000/svg" x="0" y="0" viewBox="0 0 339.3 25.2" style="enable-background:new 0 0 339.3 25.2" xml:space="preserve"><style>.st0{enable-background:new}.st1{fill:#5becf4}.st2{fill:#b0cceb}.st3{fill:none;stroke:#e5e5e5;stroke-width:2;stroke-miterlimit:10}.st5{fill:#fff}</style><g class="st0"><path class="st1" d="M2.5 24.9c-.7 0-1.2-.2-1.6-.6-.4-.4-.6-.9-.6-1.6h.9c0 .4.1.8.3 1 .2.2.5.4 1 .4.4 0 .7-.1.9-.4.2-.2.3-.6.3-1v-4.1h.9v4.1c0 .7-.2 1.2-.6 1.6s-.8.6-1.5.6zm-.3-5.5v-.8h2v.8h-2zM7.9 24.9c-1.3 0-2-.7-2-2.1v-4.2h.9v4.2c0 .4.1.7.3.9.2.2.5.3.9.3.8 0 1.1-.4 1.1-1.3v-4.2h.9v4.2c0 .7-.2 1.2-.5 1.6-.4.4-.9.6-1.6.6zM11.2 24.8v-6.2h.8v6.2h-.8zm.8 0V24h.7c.6 0 1.1-.2 1.4-.6.3-.4.5-.9.5-1.6 0-.8-.2-1.4-.5-1.8-.3-.4-.8-.6-1.4-.6H12l-.1-.8h.8c1.9 0 2.9 1.1 2.9 3.2 0 2-1 3-2.9 3H12zM18.9 24.9c-.9 0-1.6-.3-2.1-.8s-.7-1.3-.7-2.4c0-1 .2-1.8.7-2.4s1.2-.8 2-.8c.4 0 .8.1 1.1.2s.6.3.7.6l-.7.7c-.1-.2-.3-.4-.5-.5-.2-.1-.4-.2-.7-.2-.6 0-1.1.2-1.4.6s-.5 1-.5 1.7c0 .8.2 1.4.5 1.8.3.4.8.6 1.5.6.3 0 .5 0 .7-.1.2-.1.4-.1.5-.1l.3.8c-.1 0-.3.1-.6.2 0 .1-.4.1-.8.1zm-.4-2.4v-.8h2.1v.8h-2.1zm1.3 2.2v-2.9h.8v2.9h-.8zM21.8 24.8v-6.2h.9v6.2h-.9zm0-5.4v-.8h4.1v.8h-4.1zm0 2.7v-.8h3.3v.8h-3.3zm0 2.7V24h4.1v.8h-4.1z"/></g><g class="st0"><path class="st1" d="M96.9 24.8c-.4 0-.7 0-1-.1-.3-.1-.6-.1-.9-.3l.1-.9.9.3c.3.1.6.1.9.1.4 0 .7-.1.9-.2s.3-.4.3-.7c0-.4-.2-.6-.6-.8l-1.1-.5c-.4-.2-.8-.4-1-.7-.2-.3-.3-.6-.3-1 0-.5.2-1 .5-1.3s.8-.4 1.4-.4c.4 0 .8.1 1.1.2s.6.3.9.6l-.6.6c-.3-.2-.5-.4-.7-.5-.2-.1-.5-.1-.7-.1-.3 0-.5.1-.7.2-.2.1-.2.4-.2.6 0 .2.1.4.2.5.1.1.3.2.5.3l.9.4c.5.2.8.5 1.1.7.2.3.4.6.4 1 0 .6-.2 1-.6 1.3-.4.6-1 .7-1.7.7zM100.4 24.7v-6.2h.9v6.2h-.9zm0-5.4v-.8h4.1v.8h-4.1zm0 2.7v-.8h3.3v.8h-3.3zm0 2.7v-.8h4.1v.8h-4.1zM105.7 24.7v-6.2h.9v6.2h-.9zm0 0v-.8h4.1v.8h-4.1zM111 24.7v-6.2h.9v6.2h-.9zm0-5.4v-.8h4.1v.8H111zm0 2.7v-.8h3.3v.8H111zm0 2.7v-.8h4.1v.8H111zM118.8 24.8c-1.9 0-2.9-1.1-2.9-3.2 0-1 .2-1.8.7-2.4.5-.6 1.2-.8 2.1-.8.4 0 .8.1 1.1.2.3.1.6.3.7.6l-.7.6c-.1-.2-.3-.4-.5-.5-.2-.1-.4-.2-.7-.2-.6 0-1 .2-1.4.6s-.5 1-.5 1.7c0 1.6.7 2.5 2.1 2.5.4 0 .8-.1 1.3-.3l.2.8c-.4.3-.9.4-1.5.4zM121.2 19.3v-.8h4.6v.8h-4.6zm1.8 5.4v-6.2h.9v6.2h-.9z"/></g><g class="st0"><path class="st2" d="M200 19.7v-6.2h.9v6.2h-.9zm.8-2.3v-.8h1.3c.3 0 .6-.1.8-.3.2-.2.3-.4.3-.8s-.1-.6-.3-.8c-.2-.2-.5-.3-.8-.3h-1.3l-.1-.8h1.4c.6 0 1.1.2 1.5.5.4.3.5.8.5 1.4 0 .6-.2 1.1-.5 1.5-.4.3-.9.5-1.5.5h-1.3zm2.6 2.3-1.4-2.9h1l1.5 2.9h-1.1zM205.4 19.7v-6.2h.9v6.2h-.9zm0-5.4v-.8h4.1v.8h-4.1zm0 2.7v-.8h3.3v.8h-3.3zm0 2.7v-.8h4.1v.8h-4.1zM212.4 19.8c-.4 0-.7 0-1-.1-.3-.1-.6-.1-.9-.3l.1-.9.9.3c.3.1.6.1.9.1.4 0 .7-.1.9-.2s.3-.4.3-.7c0-.4-.2-.6-.6-.8l-1.1-.5c-.4-.2-.8-.4-1-.7-.2-.3-.3-.6-.3-1 0-.5.2-1 .5-1.3s.8-.4 1.4-.4c.4 0 .8.1 1.1.2s.6.3.9.6l-.6.6c-.3-.2-.5-.4-.7-.5-.2-.1-.5-.1-.7-.1-.3 0-.5.1-.7.2-.2.1-.2.4-.2.6 0 .2.1.4.2.5.1.1.3.2.5.3l.9.4c.5.2.8.5 1.1.7.2.3.4.6.4 1 0 .6-.2 1-.6 1.3-.4.6-1 .7-1.7.7zM217.9 19.8c-1.3 0-2-.7-2-2.1v-4.2h.9v4.2c0 .4.1.7.3.9.2.2.5.3.9.3.8 0 1.1-.4 1.1-1.3v-4.2h.9v4.2c0 .7-.2 1.2-.5 1.6-.5.5-1 .6-1.6.6zM221.2 19.7v-6.2h.9v6.2h-.9zm0 0v-.8h4.1v.8h-4.1zM226.1 14.3v-.8h4.6v.8h-4.6zm1.9 5.4v-6.2h.9v6.2h-.9z"/></g><g class="st0"><path class="st2" d="M305.8 19.8c-1.9 0-2.9-1.1-2.9-3.2 0-1 .2-1.8.7-2.4.5-.6 1.2-.8 2.1-.8.4 0 .8.1 1.1.2.3.1.6.3.7.6l-.7.6c-.1-.2-.3-.4-.5-.5-.2-.1-.4-.2-.7-.2-.6 0-1 .2-1.4.6-.3.4-.5 1-.5 1.7 0 1.6.7 2.5 2.1 2.5.4 0 .8-.1 1.3-.3l.2.8c-.4.3-1 .4-1.5.4zM307.9 19.7l1.8-6.2h1.3l1.8 6.2h-.9l-1.5-5.5h-.1l-1.5 5.5h-.9zm.9-1.5v-.8h3.2v.8h-3.2zM313.7 19.7v-6.2h.9v6.2h-.9zm.5-3v-.4h1.8v.4h-1.8zm.3-.3V16h1.1c.3 0 .6-.1.8-.2.2-.1.3-.4.3-.6 0-.3-.1-.5-.3-.6-.2-.1-.5-.2-.8-.2h-1l-.1-.8h1.1c.6 0 1.1.1 1.5.4.3.3.5.7.5 1.2 0 .4-.2.8-.5 1-.3.2-.8.3-1.4.3h-1.2zm0 3.3v-.8h1.3c.4 0 .7-.1.9-.3.2-.2.3-.4.3-.7 0-.3-.1-.6-.3-.8-.2-.2-.5-.3-.9-.3h-1.2l-.1-.4h1.6c.6 0 1.1.1 1.5.4.3.3.5.7.5 1.2s-.2 1-.5 1.3-.8.4-1.4.4h-1.7zM319 14.3v-.8h3.8v.8H319zm0 5.4v-.8h3.8v.8H319zm1.5 0v-6.2h.9v6.2h-.9zM324.2 19.7v-6.2h.8v6.2h-.8zm2.9 0-1.9-4.7h-.4v-1.5h.6l1.9 4.7h.2v1.5h-.4zm.2 0v-6.2h.8v6.2h-.8zM329.5 19.7v-6.2h.9v6.2h-.9zm0-5.4v-.8h4.1v.8h-4.1zm0 2.7v-.8h3.3v.8h-3.3zm0 2.7v-.8h4.1v.8h-4.1zM334.5 14.3v-.8h4.6v.8h-4.6zm1.8 5.4v-6.2h.9v6.2h-.9z"/></g><path class="st1" d="M20.7 7.5h87.2v2.3H20.7z"/><path class="st3" d="M218.6 8.6h3"/><path style="fill:none;stroke:#e5e5e5;stroke-width:2;stroke-miterlimit:10;stroke-dasharray:0,0,6.22,6.22" d="M227.8 8.6h83.9"/><path class="st3" d="M314.8 8.6h3M112.8 8.6h99.3"/><circle class="st1" cx="13.1" cy="8.6" r="8.4"/><circle class="st1" cx="110.3" cy="8.4" r="8.4"/><circle class="st5" cx="110.3" cy="8.4" r="3"/><circle class="st2" cx="215.4" cy="8.6" r="3.4"/><circle class="st2" cx="320.9" cy="8.6" r="3.4"/><path transform="rotate(-42.862 10.388 9.56)" class="st5" d="M9.3 7.5h2.1v4.1H9.3z"/><path transform="rotate(-40.23 14.18 9.24)" class="st5" d="M10.1 8.1h8.2v2.2h-8.2z"/></svg>