<svg version="1.1" id="_レイヤー_2" xmlns="http://www.w3.org/2000/svg" x="0" y="0" viewBox="0 0 339.4 25.4" style="enable-background:new 0 0 339.4 25.4" xml:space="preserve"><style>.st0{enable-background:new}.st1{fill:#5becf4}.st2{fill:#b0cceb}.st3{fill:none;stroke:#e5e5e5;stroke-width:2;stroke-miterlimit:10}</style><g class="st0"><path class="st1" d="M2.5 25c-.7 0-1.2-.2-1.6-.6-.4-.4-.6-.9-.6-1.6h.9c0 .4.1.8.3 1 .2.2.5.4 1 .4.4 0 .7-.1.9-.4.2-.2.3-.6.3-1v-4.1h.9v4.1c0 .7-.2 1.2-.6 1.6s-.8.6-1.5.6zm-.3-5.5v-.8h2v.8h-2zM7.9 25c-1.3 0-2-.7-2-2.1v-4.2h.9v4.2c0 .4.1.7.3.9s.5.3.9.3c.8 0 1.1-.4 1.1-1.3v-4.2h.9v4.2c0 .7-.2 1.2-.5 1.6-.4.5-.9.6-1.6.6zM11.2 24.9v-6.2h.8v6.2h-.8zm.8 0v-.8h.7c.6 0 1.1-.2 1.4-.5.3-.4.5-.9.5-1.6 0-.8-.2-1.4-.5-1.8-.3-.4-.8-.6-1.4-.6H12l-.1-.8h.8c1.9 0 2.9 1.1 2.9 3.2 0 2-1 3-2.9 3H12zM18.9 25c-.9 0-1.6-.3-2.1-.8s-.7-1.3-.7-2.4c0-1 .2-1.8.7-2.4.5-.6 1.2-.8 2-.8.4 0 .8.1 1.1.2.3.1.6.3.7.6l-.7.7c-.1-.2-.3-.4-.5-.5-.2-.1-.4-.2-.7-.2-.6 0-1.1.2-1.4.6-.3.4-.5 1-.5 1.7 0 .8.2 1.4.5 1.8.3.4.8.6 1.5.6.3 0 .5 0 .7-.1.2-.1.4-.1.5-.1l.3.8c-.1 0-.3.1-.6.2 0 .1-.4.1-.8.1zm-.4-2.3v-.8h2.1v.8h-2.1zm1.3 2.1v-2.9h.8v2.9h-.8zM21.8 24.9v-6.2h.9v6.2h-.9zm0-5.4v-.8h4.1v.8h-4.1zm0 2.7v-.8h3.3v.8h-3.3zm0 2.7v-.8h4.1v.8h-4.1z"/></g><g class="st0"><path class="st2" d="M97.1 20.1c-.4 0-.7 0-1-.1-.3-.1-.6-.1-.9-.3l.1-.9.9.3c.3.1.6.1.9.1.4 0 .7-.1.9-.2s.3-.4.3-.7c0-.4-.2-.6-.6-.8l-1.1-.5c-.4-.2-.8-.4-1-.7-.2-.3-.3-.6-.3-1 0-.5.2-1 .5-1.3s.8-.4 1.4-.4c.4 0 .8.1 1.1.2s.6.3.9.6l-.6.6c-.3-.2-.5-.4-.7-.5-.2-.1-.5-.1-.7-.1-.3 0-.5.1-.7.2-.2.1-.2.4-.2.6 0 .2.1.4.2.5.1.1.3.2.5.3l.9.4c.5.2.8.5 1.1.7.2.3.4.6.4 1 0 .6-.2 1-.6 1.3-.4.6-.9.7-1.7.7zM100.7 20v-6.2h.9V20h-.9zm0-5.4v-.8h4.1v.8h-4.1zm0 2.7v-.8h3.3v.8h-3.3zm0 2.7v-.8h4.1v.8h-4.1zM106 20v-6.2h.9V20h-.9zm0 0v-.8h4.1v.8H106zM111.2 20v-6.2h.9V20h-.9zm0-5.4v-.8h4.1v.8h-4.1zm0 2.7v-.8h3.3v.8h-3.3zm0 2.7v-.8h4.1v.8h-4.1zM119.1 20.1c-1.9 0-2.9-1.1-2.9-3.2 0-1 .2-1.8.7-2.4.5-.6 1.2-.8 2.1-.8.4 0 .8.1 1.1.2.3.1.6.3.7.6l-.7.6c-.1-.2-.3-.4-.5-.5-.2-.1-.4-.2-.7-.2-.6 0-1 .2-1.4.6s-.5 1-.5 1.7c0 1.6.7 2.5 2.1 2.5.4 0 .8-.1 1.3-.3l.2.8c-.4.3-.9.4-1.5.4zM121.4 14.6v-.8h4.6v.8h-4.6zm1.9 5.4v-6.2h.9V20h-.9z"/></g><g class="st0"><path class="st2" d="M200.5 20.3v-6.2h.9v6.2h-.9zm.8-2.3v-.8h1.3c.3 0 .6-.1.8-.3.2-.2.3-.4.3-.8s-.1-.6-.3-.8c-.2-.2-.5-.3-.8-.3h-1.3l-.1-.8h1.4c.6 0 1.1.2 1.5.5.4.3.5.8.5 1.4 0 .6-.2 1.1-.5 1.5-.4.3-.9.5-1.5.5h-1.3zm2.6 2.3-1.4-2.9h1l1.5 2.9h-1.1zM205.9 20.3v-6.2h.9v6.2h-.9zm0-5.4v-.8h4.1v.8h-4.1zm0 2.7v-.8h3.3v.8h-3.3zm0 2.7v-.8h4.1v.8h-4.1zM212.9 20.4c-.4 0-.7 0-1-.1-.3-.1-.6-.1-.9-.3l.1-.9.9.3c.3.1.6.1.9.1.4 0 .7-.1.9-.2s.3-.4.3-.7c0-.4-.2-.6-.6-.8l-1.1-.5c-.4-.2-.8-.4-1-.7-.2-.3-.3-.6-.3-1 0-.5.2-1 .5-1.3s.8-.4 1.4-.4c.4 0 .8.1 1.1.2s.6.3.9.6l-.6.6c-.3-.2-.5-.4-.7-.5-.2-.1-.5-.1-.7-.1-.3 0-.5.1-.7.2-.2.1-.2.4-.2.6 0 .2.1.4.2.5.1.1.3.2.5.3l.9.4c.5.2.8.5 1.1.7.2.3.4.6.4 1 0 .6-.2 1-.6 1.3-.4.6-1 .7-1.7.7zM218.3 20.4c-1.3 0-2-.7-2-2.1v-4.2h.9v4.2c0 .4.1.7.3.9.2.2.5.3.9.3.8 0 1.1-.4 1.1-1.3V14h.9v4.2c0 .7-.2 1.2-.5 1.6-.4.4-.9.6-1.6.6zM221.7 20.3v-6.2h.9v6.2h-.9zm0 0v-.8h4.1v.8h-4.1zM226.6 14.9v-.8h4.6v.8h-4.6zm1.9 5.4v-6.2h.9v6.2h-.9z"/></g><path class="st3" d="M113.1 9h99.3"/><g class="st0"><path class="st2" d="M306.1 20.2c-1.9 0-2.9-1.1-2.9-3.2 0-1 .2-1.8.7-2.4.5-.6 1.2-.8 2.1-.8.4 0 .8.1 1.1.2.3.1.6.3.7.6l-.7.6c-.1-.2-.3-.4-.5-.5-.2-.1-.4-.2-.7-.2-.6 0-1 .2-1.4.6s-.5 1-.5 1.7c0 1.6.7 2.5 2.1 2.5.4 0 .8-.1 1.3-.3l.2.8c-.4.3-1 .4-1.5.4zM308.2 20.2 310 14h1.3l1.8 6.2h-.9l-1.5-5.5h-.1l-1.5 5.5h-.9zm.9-1.6v-.8h3.2v.8h-3.2zM314 20.2V14h.9v6.2h-.9zm.5-3.1v-.4h1.8v.4h-1.8zm.3-.3v-.4h1.1c.3 0 .6-.1.8-.2.2-.1.3-.4.3-.6 0-.3-.1-.5-.3-.6s-.5-.2-.8-.2h-1l-.1-.8h1.1c.6 0 1.1.1 1.5.4.3.3.5.7.5 1.2 0 .4-.2.8-.5 1-.3.2-.8.3-1.4.3h-1.2zm0 3.4v-.8h1.3c.4 0 .7-.1.9-.3.2-.2.3-.4.3-.7 0-.3-.1-.6-.3-.8-.2-.2-.5-.3-.9-.3h-1.2l-.1-.4h1.6c.6 0 1.1.1 1.5.4.3.3.5.7.5 1.2s-.2 1-.5 1.3-.8.4-1.4.4h-1.7zM319.3 14.7v-.8h3.8v.8h-3.8zm0 5.5v-.8h3.8v.8h-3.8zm1.5 0V14h.9v6.2h-.9zM324.5 20.2V14h.8v6.2h-.8zm2.9 0-1.9-4.7h-.5V14h.6l1.9 4.7h.2v1.5h-.3zm.2 0V14h.8v6.2h-.8zM329.8 20.2V14h.9v6.2h-.9zm0-5.5v-.8h4.1v.8h-4.1zm0 2.7v-.8h3.3v.8h-3.3zm0 2.8v-.8h4.1v.8h-4.1zM334.8 14.7v-.8h4.6v.8h-4.6zm1.8 5.5V14h.9v6.2h-.9z"/></g><path style="fill:#e5e5e5" d="M21 7.8h87.2v2.3H21z"/><path class="st3" d="M218.8 9h3"/><path style="fill:none;stroke:#e5e5e5;stroke-width:2;stroke-miterlimit:10;stroke-dasharray:0,0,6.22,6.22" d="M228 9h84"/><path class="st3" d="M315.1 9h3"/><circle class="st1" cx="13.3" cy="8.8" r="8.4"/><circle cx="13.3" cy="8.8" r="3" style="fill:#fff"/><circle class="st2" cx="110.5" cy="9" r="3.4"/><circle class="st2" cx="321.2" cy="9" r="3.4"/><circle class="st2" cx="215.6" cy="9" r="3.4"/></svg>