<?xml version="1.0" encoding="utf-8"?>
<!-- Generator: Adobe Illustrator 26.5.0, SVG Export Plug-In . SVG Version: 6.00 Build 0)  -->
<svg version="1.1" id="_レイヤー_4" xmlns="http://www.w3.org/2000/svg" xmlns:xlink="http://www.w3.org/1999/xlink" x="0px"
	 y="0px" viewBox="0 0 338.8 25.3" style="enable-background:new 0 0 338.8 25.3;" xml:space="preserve">
<style type="text/css">
	.st0{enable-background:new    ;}
	.st1{fill:#5BECF4;}
	.st2{fill:#B0CCEB;}
	.st3{fill:none;stroke:#E5E5E5;stroke-width:2;stroke-miterlimit:10;}
	.st4{fill:none;stroke:#E5E5E5;stroke-width:2;stroke-miterlimit:10;stroke-dasharray:0,0,6.22,6.22;}
	.st5{fill:none;stroke:#5BECF4;stroke-width:2;stroke-miterlimit:10;}
	.st6{fill:#FFFFFF;}
</style>
<g class="st0">
	<path class="st1" d="M2.4,24.8c-0.7,0-1.2-0.2-1.6-0.6c-0.4-0.4-0.6-0.9-0.6-1.6h0.9c0,0.4,0.1,0.8,0.3,1s0.5,0.4,1,0.4
		c0.4,0,0.7-0.1,0.9-0.4c0.2-0.2,0.3-0.6,0.3-1v-4.1h0.9v4.1c0,0.7-0.2,1.2-0.6,1.6S3.1,24.8,2.4,24.8z M2,19.4v-0.8h2v0.8H2z"/>
	<path class="st1" d="M7.8,24.8c-1.3,0-2-0.7-2-2.1v-4.2h0.9v4.2c0,0.4,0.1,0.7,0.3,0.9c0.2,0.2,0.5,0.3,0.9,0.3
		c0.8,0,1.1-0.4,1.1-1.3v-4.2h0.9v4.2c0,0.7-0.2,1.2-0.5,1.6C8.9,24.7,8.4,24.8,7.8,24.8z"/>
	<path class="st1" d="M11,24.8v-6.2h0.9v6.2H11z M11.8,24.8V24h0.7c0.6,0,1.1-0.2,1.4-0.5c0.3-0.4,0.5-0.9,0.5-1.6
		c0-0.8-0.2-1.4-0.5-1.8s-0.8-0.6-1.4-0.6h-0.6l-0.1-0.8h0.8c1.9,0,2.9,1.1,2.9,3.2c0,2-1,3-2.9,3h-0.8V24.8z"/>
	<path class="st1" d="M18.8,24.8c-0.9,0-1.6-0.3-2.1-0.8S16,22.7,16,21.6c0-1,0.2-1.8,0.7-2.4s1.2-0.8,2-0.8c0.4,0,0.8,0.1,1.1,0.2
		c0.3,0.1,0.6,0.3,0.7,0.6l-0.6,0.7c-0.1-0.2-0.3-0.4-0.5-0.5s-0.4-0.2-0.7-0.2c-0.6,0-1.1,0.2-1.4,0.6s-0.5,1-0.5,1.7
		c0,0.8,0.2,1.4,0.5,1.8s0.8,0.6,1.5,0.6c0.3,0,0.5,0,0.7-0.1s0.4-0.1,0.5-0.1l0.3,0.8c-0.1,0-0.3,0.1-0.6,0.2
		C19.5,24.8,19.2,24.8,18.8,24.8z M18.4,22.5v-0.8h2.1v0.8H18.4z M19.6,24.6v-2.9h0.8v2.9H19.6z"/>
	<path class="st1" d="M21.7,24.8v-6.2h0.9v6.2H21.7z M21.7,19.4v-0.8h4.1v0.8H21.7z M21.7,22.1v-0.8H25v0.8H21.7z M21.7,24.8V24h4.1
		v0.8H21.7z"/>
</g>
<g class="st0">
	<path class="st1" d="M96.6,24.8c-0.4,0-0.7,0-1-0.1s-0.6-0.1-0.9-0.3l0.1-0.9c0.3,0.1,0.6,0.2,0.9,0.3c0.3,0.1,0.6,0.1,0.9,0.1
		c0.4,0,0.7-0.1,0.9-0.2s0.3-0.4,0.3-0.7c0-0.4-0.2-0.6-0.6-0.8l-1.1-0.5c-0.4-0.2-0.8-0.4-1-0.7c-0.2-0.3-0.3-0.6-0.3-1
		c0-0.5,0.2-1,0.5-1.3s0.8-0.4,1.4-0.4c0.4,0,0.8,0.1,1.1,0.2s0.6,0.3,0.9,0.6l-0.6,0.6c-0.3-0.2-0.5-0.4-0.7-0.5s-0.5-0.1-0.7-0.1
		c-0.3,0-0.5,0.1-0.7,0.2s-0.2,0.4-0.2,0.6s0.1,0.4,0.2,0.5s0.3,0.2,0.5,0.3l0.9,0.4c0.5,0.2,0.8,0.5,1.1,0.7c0.2,0.3,0.4,0.6,0.4,1
		c0,0.6-0.2,1-0.6,1.3C97.9,24.7,97.4,24.8,96.6,24.8z"/>
	<path class="st1" d="M100.2,24.8v-6.2h0.9v6.2H100.2z M100.2,19.4v-0.8h4.1v0.8H100.2z M100.2,22.1v-0.8h3.3v0.8H100.2z
		 M100.2,24.8V24h4.1v0.8H100.2z"/>
	<path class="st1" d="M105.4,24.8v-6.2h0.9v6.2H105.4z M105.4,24.8V24h4.1v0.8H105.4z"/>
	<path class="st1" d="M110.7,24.8v-6.2h0.9v6.2H110.7z M110.7,19.4v-0.8h4.1v0.8H110.7z M110.7,22.1v-0.8h3.3v0.8H110.7z
		 M110.7,24.8V24h4.1v0.8H110.7z"/>
	<path class="st1" d="M118.6,24.8c-1.9,0-2.9-1.1-2.9-3.2c0-1,0.2-1.8,0.7-2.4s1.2-0.8,2.1-0.8c0.4,0,0.8,0.1,1.1,0.2
		s0.6,0.3,0.7,0.6l-0.7,0.6c-0.1-0.2-0.3-0.4-0.5-0.5s-0.4-0.2-0.7-0.2c-0.6,0-1,0.2-1.4,0.6s-0.5,1-0.5,1.7c0,1.6,0.7,2.5,2.1,2.5
		c0.4,0,0.8-0.1,1.3-0.3l0.2,0.8C119.7,24.7,119.1,24.8,118.6,24.8z"/>
	<path class="st1" d="M120.9,19.4v-0.8h4.6v0.8H120.9z M122.7,24.8v-6.2h0.9v6.2H122.7z"/>
</g>
<g class="st0">
	<path class="st1" d="M200,25.1v-6.2h0.9v6.2C200.9,25.1,200,25.1,200,25.1z M200.8,22.8V22h1.3c0.3,0,0.6-0.1,0.8-0.3
		c0.2-0.2,0.3-0.4,0.3-0.8s-0.1-0.6-0.3-0.8c-0.2-0.2-0.5-0.3-0.8-0.3h-1.3l-0.1-0.8h1.4c0.6,0,1.1,0.2,1.5,0.5s0.5,0.8,0.5,1.4
		s-0.2,1.1-0.5,1.5c-0.4,0.3-0.9,0.5-1.5,0.5h-1.3V22.8z M203.3,25.1l-1.4-2.9h1l1.5,2.9H203.3z"/>
	<path class="st1" d="M205.4,25.1v-6.2h0.9v6.2C206.3,25.1,205.4,25.1,205.4,25.1z M205.4,19.7v-0.8h4.1v0.8H205.4z M205.4,22.4
		v-0.8h3.3v0.8H205.4z M205.4,25.1v-0.8h4.1v0.8H205.4z"/>
	<path class="st1" d="M212.3,25.2c-0.4,0-0.7,0-1-0.1s-0.6-0.1-0.9-0.3l0.1-0.9c0.3,0.1,0.6,0.2,0.9,0.3c0.3,0.1,0.6,0.1,0.9,0.1
		c0.4,0,0.7-0.1,0.9-0.2s0.3-0.4,0.3-0.7c0-0.4-0.2-0.6-0.6-0.8l-1.1-0.5c-0.4-0.2-0.8-0.4-1-0.7c-0.2-0.3-0.3-0.6-0.3-1
		c0-0.5,0.2-1,0.5-1.3s0.8-0.4,1.4-0.4c0.4,0,0.8,0.1,1.1,0.2s0.6,0.3,0.9,0.6l-0.6,0.6c-0.3-0.2-0.5-0.4-0.7-0.5s-0.5-0.1-0.7-0.1
		c-0.3,0-0.5,0.1-0.7,0.2s-0.2,0.4-0.2,0.6s0.1,0.4,0.2,0.5c0.1,0.1,0.3,0.2,0.5,0.3l0.9,0.4c0.5,0.2,0.8,0.5,1.1,0.7
		c0.2,0.3,0.4,0.6,0.4,1c0,0.6-0.2,1-0.6,1.3C213.7,25.1,213.1,25.2,212.3,25.2z"/>
	<path class="st1" d="M217.8,25.2c-1.3,0-2-0.7-2-2.1v-4.2h0.9v4.2c0,0.4,0.1,0.7,0.3,0.9c0.2,0.2,0.5,0.3,0.9,0.3
		c0.8,0,1.1-0.4,1.1-1.3v-4.2h0.9V23c0,0.7-0.2,1.2-0.5,1.6C219,25.1,218.5,25.2,217.8,25.2z"/>
	<path class="st1" d="M221.2,25.1v-6.2h0.9v6.2C222.1,25.1,221.2,25.1,221.2,25.1z M221.2,25.1v-0.8h4.1v0.8H221.2z"/>
	<path class="st1" d="M226.1,19.7v-0.8h4.6v0.8H226.1z M227.9,25.1v-6.2h0.9v6.2C228.8,25.1,227.9,25.1,227.9,25.1z"/>
</g>
<g class="st0">
	<path class="st2" d="M305.5,20.2c-1.9,0-2.9-1.1-2.9-3.2c0-1,0.2-1.8,0.7-2.4c0.5-0.6,1.2-0.8,2.1-0.8c0.4,0,0.8,0.1,1.1,0.2
		c0.3,0.1,0.6,0.3,0.7,0.6l-0.7,0.6c-0.1-0.2-0.3-0.4-0.5-0.5s-0.4-0.2-0.7-0.2c-0.6,0-1,0.2-1.4,0.6s-0.5,1-0.5,1.7
		c0,1.6,0.7,2.5,2.1,2.5c0.4,0,0.8-0.1,1.3-0.3l0.2,0.8C306.6,20.1,306.1,20.2,305.5,20.2z"/>
	<path class="st2" d="M307.7,20.1l1.8-6.2h1.3l1.8,6.2h-0.9l-1.5-5.5h-0.1l-1.5,5.5H307.7z M308.5,18.6v-0.8h3.2v0.8H308.5z"/>
	<path class="st2" d="M313.5,20.1v-6.2h0.9v6.2H313.5z M314,17.1v-0.4h1.8v0.4H314z M314.3,16.8v-0.4h1.1c0.3,0,0.6-0.1,0.8-0.2
		c0.2-0.1,0.3-0.4,0.3-0.6c0-0.3-0.1-0.5-0.3-0.6s-0.5-0.2-0.8-0.2h-1l-0.1-0.8h1.1c0.6,0,1.1,0.1,1.5,0.4c0.3,0.3,0.5,0.7,0.5,1.2
		c0,0.4-0.2,0.8-0.5,1s-0.8,0.3-1.4,0.3L314.3,16.8L314.3,16.8z M314.3,20.1v-0.8h1.3c0.4,0,0.7-0.1,0.9-0.3
		c0.2-0.2,0.3-0.4,0.3-0.7c0-0.3-0.1-0.6-0.3-0.8c-0.2-0.2-0.5-0.3-0.9-0.3h-1.2l-0.1-0.4h1.6c0.6,0,1.1,0.1,1.5,0.4
		c0.3,0.3,0.5,0.7,0.5,1.2s-0.2,1-0.5,1.3s-0.8,0.4-1.4,0.4C316,20.1,314.3,20.1,314.3,20.1z"/>
	<path class="st2" d="M318.8,14.7v-0.8h3.8v0.8H318.8z M318.8,20.1v-0.8h3.8v0.8H318.8z M320.3,20.1v-6.2h0.9v6.2H320.3z"/>
	<path class="st2" d="M324,20.1v-6.2h0.8v6.2H324z M326.9,20.1l-1.9-4.7h-0.4v-1.5h0.6l1.9,4.7h0.2v1.5H326.9z M327.1,20.1v-6.2h0.8
		v6.2H327.1z"/>
	<path class="st2" d="M329.3,20.1v-6.2h0.9v6.2H329.3z M329.3,14.7v-0.8h4.1v0.8H329.3z M329.3,17.4v-0.8h3.3v0.8H329.3z
		 M329.3,20.1v-0.8h4.1v0.8H329.3z"/>
	<path class="st2" d="M334.2,14.7v-0.8h4.6v0.8H334.2z M336.1,20.1v-6.2h0.9v6.2H336.1z"/>
</g>
<rect x="20.5" y="7.6" class="st1" width="87.2" height="2.3"/>
<g>
	<line class="st3" x1="218.3" y1="8.8" x2="221.3" y2="8.8"/>
	<line class="st4" x1="227.5" y1="8.8" x2="311.5" y2="8.8"/>
	<line class="st3" x1="314.6" y1="8.8" x2="317.6" y2="8.8"/>
</g>
<line class="st5" x1="112.4" y1="8.8" x2="211.7" y2="8.8"/>
<g>
	<circle class="st1" cx="110" cy="8.6" r="8.4"/>
	<g>
		<rect x="106.2" y="7.5" transform="matrix(0.733 -0.6802 0.6802 0.733 22.1544 75.4734)" class="st6" width="2.1" height="4.1"/>
		<rect x="107" y="8.1" transform="matrix(0.7635 -0.6459 0.6459 0.7635 20.3343 73.9366)" class="st6" width="8.2" height="2.2"/>
	</g>
</g>
<circle class="st1" cx="12.9" cy="8.8" r="8.4"/>
<g>
	<circle class="st1" cx="215.1" cy="8.8" r="8.4"/>
	<circle class="st6" cx="215.1" cy="8.8" r="3"/>
</g>
<circle class="st2" cx="320.7" cy="8.8" r="3.4"/>
<g>
	<rect x="9.1" y="7.6" transform="matrix(0.733 -0.6802 0.6802 0.733 -3.8761 9.4508)" class="st6" width="2.1" height="4.1"/>
	<rect x="9.8" y="8.3" transform="matrix(0.7635 -0.6459 0.6459 0.7635 -2.7986 11.2154)" class="st6" width="8.2" height="2.2"/>
</g>
</svg>
