<svg xmlns="http://www.w3.org/2000/svg" viewBox="0 0 400 400" style="enable-background:new 0 0 400 400" xml:space="preserve"><style>.st0{display:none}.st4{display:inline}.st5,.st7{fill:#fff}.st7{display:inline}.st43{fill:#c8c8c8}.st50{fill:#282828}.st54,.st55{display:inline;fill:#e9e9e9}.st55{fill:#e77100}.st60{fill:#e8f9ff}.st64{display:inline}.st64,.st65{fill:#39c94a}.st72{display:inline;fill:#e01e5a}.st73,.st74,.st75{display:inline;fill:#ecb22d}.st74,.st75{fill:#2fb67c}.st75{fill:#36c5f1}</style><g id="timeline_00000181799720588975501080000017600788650572632757_"><g id="timeline"><path d="M199.99 56.04c-48.93 0-92.14 24.43-118.15 61.74V59.74H70.5v76.72h76.16V125H91.29c23.83-34.47 63.62-57.06 108.7-57.06 72.94 0 132.06 59.13 132.06 132.06s-59.13 132.06-132.06 132.06S67.93 272.94 67.93 200h-11.9c0 79.51 64.45 143.96 143.96 143.96S343.95 279.51 343.95 200 279.5 56.04 199.99 56.04z"/><path d="M206.19 195.79V93.47h-12.86V200h1.12l-1.12 1.12 50.45 50.44 9.09-9.09z"/></g></g></svg>