<svg xmlns="http://www.w3.org/2000/svg" viewBox="0 0 400 400" style="enable-background:new 0 0 400 400" xml:space="preserve"><style>.st0{display:none}.st4{display:inline}.st5,.st7{fill:#fff}.st7{display:inline}.st43{fill:#c8c8c8}.st50{fill:#282828}.st54,.st55{display:inline;fill:#e9e9e9}.st55{fill:#e77100}.st60{fill:#e8f9ff}.st64{display:inline}.st64,.st65{fill:#39c94a}.st72{display:inline;fill:#e01e5a}.st73,.st74,.st75{display:inline;fill:#ecb22d}.st74,.st75{fill:#2fb67c}.st75{fill:#36c5f1}</style><g id="user"><g id="レイヤー_23"><path d="M200.03 98.68c-35.92 0-65.04 29.12-65.04 65.04s29.12 65.04 65.04 65.04 65.04-29.12 65.04-65.04-29.12-65.04-65.04-65.04zm0 119.19c-29.91 0-54.15-24.25-54.15-54.15s24.25-54.15 54.15-54.15 54.15 24.25 54.15 54.15-24.24 54.15-54.15 54.15z"/><path d="M200 45.75c-85.19 0-154.25 69.06-154.25 154.25S114.81 354.25 200 354.25 354.25 285.19 354.25 200 285.19 45.75 200 45.75zm-95.47 261.72c3.49-32.19 30.75-57.24 63.86-57.24h60.85c33.76 0 61.45 25.88 64.36 58.88-25.15 21.6-57.85 34.65-93.6 34.65-36.65 0-70.08-13.72-95.47-36.29zm197.38-6.08c-3-35.01-32.35-62.5-68.14-62.5h-69.54c-35.18 0-64.12 26.7-67.66 60.94C71.6 273.97 56.24 238.78 56.24 200c0-79.4 64.36-143.76 143.76-143.76S343.76 120.6 343.76 200c0 39.56-15.99 75.39-41.85 101.39z"/></g></g></svg>