<svg xmlns="http://www.w3.org/2000/svg" viewBox="0 0 400 400" style="enable-background:new 0 0 400 400" xml:space="preserve"><style>.st0{display:none}.st4{display:inline}.st5,.st7{fill:#fff}.st7{display:inline}.st43{fill:#c8c8c8}.st50{fill:#282828}.st54,.st55{display:inline;fill:#e9e9e9}.st55{fill:#e77100}.st60{fill:#e8f9ff}.st64{display:inline}.st64,.st65{fill:#39c94a}.st72{display:inline;fill:#e01e5a}.st73,.st74,.st75{display:inline;fill:#ecb22d}.st74,.st75{fill:#2fb67c}.st75{fill:#36c5f1}</style><g id="washer"><path d="M306.04 49.53H92.31c-5.79 0-10.49 4.7-10.49 10.49v263.61c0 5.79 4.7 10.49 10.49 10.49h14.37v12c0 2.9 2.35 5.24 5.24 5.24h39.97c2.9 0 5.24-2.35 5.24-5.24v-12h85.61v12c0 2.9 2.35 5.24 5.24 5.24h39.97c2.9 0 5.24-2.35 5.24-5.24v-12h12.83c5.79 0 10.49-4.7 10.49-10.49V60.03c.02-5.8-4.68-10.5-10.47-10.5zM148.22 342.75h-32.03v-8.62h32.03v8.62zm136.06 0h-32.03v-8.62h32.03v8.62zm23.95-19.2c0 1.04-.85 1.89-1.89 1.89H93.56c-1.04 0-1.89-.85-1.89-1.89V60.49c0-1.04.85-1.89 1.89-1.89h212.79c1.04 0 1.89.85 1.89 1.89v263.06z"/><circle cx="116.61" cy="75.42" r="7.37"/><circle cx="141.56" cy="75.42" r="7.37"/><path d="M230.56 68.05h58.96v14.74h-58.96zM99.89 91.58h199.84v8.5H99.89zM199.95 116.24c-46.29 0-83.81 37.52-83.81 83.81s37.52 83.81 83.81 83.81 83.81-37.52 83.81-83.81c0-46.28-37.53-83.81-83.81-83.81zm0 158.83c-41.43 0-75.02-33.59-75.02-75.02 0-41.43 33.59-75.02 75.02-75.02 41.43 0 75.02 33.59 75.02 75.02 0 41.44-33.59 75.02-75.02 75.02z"/><path d="M199.95 135.71c-35.48 0-64.24 28.76-64.24 64.24 0 35.48 28.76 64.24 64.24 64.24 35.48 0 64.24-28.76 64.24-64.24 0-35.48-28.76-64.24-64.24-64.24zm32.67 18.61-78.29 78.29a55.944 55.944 0 0 1-7.28-13.92l71.65-71.65c5 1.78 9.68 4.24 13.92 7.28zm-32.67-10.49c3 0 5.95.24 8.83.7l-64.25 64.25c-.45-2.88-.7-5.82-.7-8.83 0-31 25.12-56.12 56.12-56.12zm0 112.24c-15.63 0-29.77-6.4-39.94-16.71l79.35-79.35a56.382 56.382 0 0 1 12.02 17.45c-7.81 4.46-13.08 12.85-13.08 22.48 0 9.64 5.27 18.02 13.08 22.48-8.68 19.81-28.43 33.65-51.43 33.65zm46.84-56.12c0-5.9 2.95-11.11 7.44-14.25 1.19 4.55 1.83 9.33 1.83 14.25s-.64 9.7-1.83 14.25c-4.49-3.14-7.44-8.35-7.44-14.25z"/></g></svg>